<svg width="24" height="24" viewBox="0 0 24 24" fill="none" xmlns="http://www.w3.org/2000/svg">
<mask id="mask0_357_13344" style="mask-type:alpha" maskUnits="userSpaceOnUse" x="0" y="0" width="24" height="24">
<rect width="24" height="24" fill="#D9D9D9"/>
</mask>
<g mask="url(#mask0_357_13344)">
<path d="M19.875 22.65L1.35 4.12501C1.16666 3.94167 1.075 3.71667 1.075 3.45001C1.075 3.18334 1.175 2.95001 1.375 2.75001C1.55833 2.56667 1.79166 2.47501 2.075 2.47501C2.35833 2.47501 2.59166 2.56667 2.775 2.75001L21.3 21.275C21.4833 21.4583 21.575 21.6833 21.575 21.95C21.575 22.2167 21.475 22.45 21.275 22.65C21.0917 22.8333 20.8583 22.925 20.575 22.925C20.2917 22.925 20.0583 22.8333 19.875 22.65ZM18.025 15.175L6.85 4.00001H16.025C16.575 4.00001 17.046 4.19601 17.438 4.58801C17.8293 4.97934 18.025 5.45001 18.025 6.00001V10.5L21.175 7.35001C21.325 7.20001 21.5043 7.16234 21.713 7.23701C21.921 7.31234 22.025 7.46667 22.025 7.70001V16.3C22.025 16.5333 21.921 16.6873 21.713 16.762C21.5043 16.8373 21.325 16.8 21.175 16.65L18.025 13.5V15.175ZM4.025 4.00001L18.025 18C18.0083 18.5333 17.8 19 17.4 19.4C17 19.8 16.5333 20 16 20H4C3.45 20 2.97933 19.8043 2.588 19.413C2.196 19.021 2 18.55 2 18V6.00001C2 5.46667 2.204 5.00001 2.612 4.60001C3.02066 4.20001 3.49166 4.00001 4.025 4.00001Z" fill="#E4281B"/>
</g>
</svg>
