<svg width="24" height="24" viewBox="0 0 24 24" fill="none" xmlns="http://www.w3.org/2000/svg">
<g id="icons / back">
<mask id="mask0_7_9955" style="mask-type:alpha" maskUnits="userSpaceOnUse" x="0" y="0" width="24" height="24">
<rect id="Bounding box" width="24" height="24" fill="#D9D9D9"/>
</mask>
<g mask="url(#mask0_7_9955)">
<path id="arrow_back_ios" d="M9.12505 21.1L0.700049 12.7C0.600049 12.6 0.529215 12.4917 0.487549 12.375C0.445882 12.2583 0.425049 12.1333 0.425049 12C0.425049 11.8667 0.445882 11.7417 0.487549 11.625C0.529215 11.5083 0.600049 11.4 0.700049 11.3L9.12505 2.875C9.35838 2.64167 9.65005 2.525 10 2.525C10.35 2.525 10.65 2.65 10.9 2.9C11.15 3.15 11.275 3.44167 11.275 3.775C11.275 4.10833 11.15 4.4 10.9 4.65L3.55005 12L10.9 19.35C11.1334 19.5833 11.25 19.8708 11.25 20.2125C11.25 20.5542 11.125 20.85 10.875 21.1C10.625 21.35 10.3334 21.475 10 21.475C9.66672 21.475 9.37505 21.35 9.12505 21.1Z" fill="#51575C"/>
</g>
</g>
</svg>
