<svg width="49" height="48" viewBox="0 0 49 48" fill="none" xmlns="http://www.w3.org/2000/svg">
<circle cx="24.1265" cy="24" r="24" fill="#E4281B"/>
<mask id="mask0_1281_2093" style="mask-type:alpha" maskUnits="userSpaceOnUse" x="12" y="12" width="25" height="24">
<rect x="12.1265" y="12" width="24" height="24" fill="#D9D9D9"/>
</mask>
<g mask="url(#mask0_1281_2093)">
<path d="M24.1265 20C26.0932 20 28.0305 20.396 29.9385 21.188C31.8472 21.9793 33.5432 23.1667 35.0265 24.75C35.2265 24.95 35.3265 25.1833 35.3265 25.45C35.3265 25.7167 35.2265 25.95 35.0265 26.15L32.7265 28.4C32.5432 28.5833 32.3308 28.6833 32.0895 28.7C31.8475 28.7167 31.6265 28.65 31.4265 28.5L28.5265 26.3C28.3932 26.2 28.2932 26.0833 28.2265 25.95C28.1598 25.8167 28.1265 25.6667 28.1265 25.5V22.65C27.4932 22.45 26.8432 22.2917 26.1765 22.175C25.5098 22.0583 24.8265 22 24.1265 22C23.4265 22 22.7432 22.0583 22.0765 22.175C21.4098 22.2917 20.7598 22.45 20.1265 22.65V25.5C20.1265 25.6667 20.0932 25.8167 20.0265 25.95C19.9598 26.0833 19.8598 26.2 19.7265 26.3L16.8265 28.5C16.6265 28.65 16.4058 28.7167 16.1645 28.7C15.9225 28.6833 15.7098 28.5833 15.5265 28.4L13.2265 26.15C13.0265 25.95 12.9265 25.7167 12.9265 25.45C12.9265 25.1833 13.0265 24.95 13.2265 24.75C14.6932 23.1667 16.3848 21.9793 18.3015 21.188C20.2182 20.396 22.1598 20 24.1265 20Z" fill="white"/>
</g>
</svg>
