<svg width="87" height="20" viewBox="0 0 87 20" fill="none" xmlns="http://www.w3.org/2000/svg">
<g clip-path="url(#clip0_1409_111)">
<path fill-rule="evenodd" clip-rule="evenodd" d="M14.0807 15.6162C13.466 16.2616 12.854 16.9083 12.2365 17.5479C11.4913 18.3198 10.7336 19.0801 9.99678 19.862C9.82193 20.0474 9.73728 20.0417 9.56382 19.862C7.16593 17.3855 4.75971 14.9191 2.35626 12.4499C1.97049 12.0532 1.59304 11.6464 1.19339 11.2641C1.02271 11.1017 1.05185 11.0197 1.21005 10.876C2.94464 9.30936 4.93178 8.2515 7.19091 7.81744C11.3442 7.0183 15.0604 8.02441 18.3075 10.8473C18.5087 11.0226 18.5185 11.1132 18.3214 11.3043C16.8838 12.7071 15.3629 13.9791 13.4868 14.7136C11.6981 15.415 9.90519 15.3834 8.12481 14.6935C7.40461 14.4146 6.79403 13.9619 6.35414 13.2921C5.68806 12.2759 5.78242 11.0183 6.60253 10.1286C7.33384 9.33523 8.27051 8.97447 9.29323 8.83361C10.0481 8.72869 10.7989 8.77037 11.526 9.03483C11.952 9.19006 12.3281 9.42434 12.6167 9.79229C13.1537 10.4779 13.0857 11.3834 12.421 11.9396C11.612 12.6166 10.6809 12.8135 9.6679 12.5806C9.33624 12.5045 9.05316 12.3334 8.82419 12.0618C8.61049 11.8074 8.33018 11.77 8.12342 11.9468C7.90278 12.1351 7.90001 12.4355 8.12481 12.7071C8.53556 13.203 9.08091 13.4445 9.68455 13.5508C10.914 13.7664 12.0797 13.5753 13.1135 12.8293C14.4914 11.8347 14.5192 10.1617 13.1856 9.09951C12.3211 8.41104 11.3054 8.20264 10.2438 8.18251C8.78534 8.15521 7.42265 8.49441 6.23203 9.39703C4.30316 10.8588 4.27541 13.295 6.15709 14.8228C7.10903 15.5961 8.2164 15.9669 9.39869 16.1365C10.9459 16.3579 12.4502 16.184 13.9169 15.6335C13.9669 15.6148 14.0141 15.576 14.0779 15.6148L14.0807 15.6162Z" fill="#01529D"/>
<path fill-rule="evenodd" clip-rule="evenodd" d="M0.373287 10.38C0.219256 10.3081 0.117956 10.1816 0.027757 10.0566C-0.0596662 9.93727 0.0818762 9.8769 0.144321 9.81222C2.82808 7.05118 5.51461 4.29156 8.20114 1.53339C8.65768 1.06483 9.13365 0.613518 9.57493 0.129149C9.76504 -0.0792594 9.85385 -0.0117064 10.012 0.152146C11.8091 2.01345 13.6103 3.869 15.4142 5.72311C16.7298 7.07561 18.0494 8.42092 19.3649 9.77342C19.4635 9.87547 19.6494 9.96314 19.4454 10.15C19.2997 10.2837 19.2165 10.4504 18.9681 10.2477C16.9754 8.62645 14.7121 7.61316 12.2157 7.19634C9.27936 6.70622 6.43324 7.07417 3.69953 8.30881C2.57552 8.81618 1.53338 9.46584 0.564785 10.2434C0.503728 10.2923 0.438507 10.334 0.373287 10.38Z" fill="#6AB8D4"/>
<path d="M22.7231 7.46528C22.7231 6.92773 22.7231 6.52385 22.6912 6.05242C22.9937 5.97337 23.4711 5.90725 23.9137 5.89575H26.5447C26.4795 6.40024 26.3505 6.61296 26.22 6.75957C26.0577 6.82712 25.6899 6.82712 25.2029 6.82712H24.0775V8.83359H26.4365C26.3394 9.61835 26.1007 9.76352 25.7219 9.76352H24.0761V11.9611C24.3245 12.0172 24.6714 12.0402 25.0821 12.0402C25.5262 12.0402 26.3158 12.0402 26.8362 11.9956L26.8584 12.0186C26.7612 12.5001 26.5558 12.7588 26.2853 12.9155C26.134 12.9486 25.6469 12.9716 24.8129 12.9716C23.861 12.9716 23.1463 12.9155 22.8868 12.8595L22.7245 12.6467V7.46672L22.7231 7.46528Z" fill="#02539C"/>
<path d="M30.7022 9.87568C30.7022 9.22602 30.3664 8.8552 29.8904 8.8552C29.4686 8.8552 29.198 9.05642 28.9593 9.27058V12.6224C28.9593 12.8236 28.9274 12.8796 28.7109 12.9026C28.3432 12.9587 28.0074 12.9702 27.6174 12.9702C27.6396 12.3766 27.6493 11.6924 27.6493 10.9292V9.09092C27.6493 8.75459 27.6063 8.58642 27.444 8.48581V8.40676C27.5522 8.12649 27.9199 7.83472 28.2557 7.83472C28.6665 7.83472 28.8289 8.2386 28.8941 8.58642C29.3381 8.18254 29.8571 7.83472 30.3983 7.83472C31.7735 7.83472 32.0108 9.01186 32.0108 9.88574V11.2986C32.0108 11.8821 32.0219 12.4987 32.0538 12.8796C31.8054 12.9026 31.3725 12.9687 30.9173 12.9687C30.7549 12.9687 30.7008 12.9012 30.7008 12.756V9.87424L30.7022 9.87568Z" fill="#02539C"/>
<path d="M34.9596 7.83472C35.208 7.83472 35.5771 7.87927 35.8477 7.95832C36.1072 8.01438 36.4541 8.10349 36.6595 8.10349C36.9842 8.10349 37.3408 8.03594 37.4935 7.97988C37.5254 8.04744 37.5476 8.15955 37.5476 8.26016C37.5476 8.66404 37.363 8.86526 36.9953 8.90982C36.919 8.92131 36.801 8.92131 36.6817 8.93281C36.7677 9.14553 36.8121 9.38125 36.8121 9.57241C36.8121 10.7165 35.9462 11.277 34.9179 11.277C34.7445 11.277 34.6252 11.2655 34.528 11.2325C34.4517 11.3115 34.3546 11.4122 34.3546 11.5013C34.3546 11.6579 34.4628 11.7815 34.8416 11.8146C35.2746 11.8477 35.7075 11.8706 36.1294 11.9037C37.1257 11.9713 37.5046 12.5534 37.5046 13.216C37.5046 14.5397 36.2279 15.3015 34.8749 15.3015C33.522 15.3015 32.731 14.6619 32.731 13.8211C32.731 13.3396 33.2403 13.0032 33.7273 12.7675C33.4026 12.6324 33.0779 12.2961 33.0668 11.8146C33.0668 11.77 33.089 11.714 33.1639 11.6694C33.3693 11.5343 33.7051 11.3101 33.9105 11.0859C33.4123 10.8947 32.9475 10.4463 32.9475 9.62846C32.9475 8.55193 33.8134 7.83472 34.9499 7.83472H34.961H34.9596ZM33.8883 13.6428C33.8883 14.1358 34.4836 14.4276 35.1872 14.4276C35.8477 14.4276 36.3889 14.1588 36.3889 13.6658C36.3889 13.3741 36.2265 13.1168 35.6312 13.0377C35.2954 12.9817 34.8957 12.9587 34.614 12.9702C34.4836 12.9702 34.3213 13.0032 34.2352 13.0593C34.0409 13.1714 33.8883 13.3626 33.8883 13.6313V13.6428ZM34.9055 8.56343C34.4503 8.56343 34.1797 9.02336 34.1797 9.54941C34.1797 10.1775 34.4933 10.5584 34.9596 10.5584C35.4258 10.5584 35.6853 10.133 35.6853 9.58247C35.6853 9.08948 35.5008 8.56199 34.9166 8.56199H34.9055V8.56343Z" fill="#02539C"/>
<path d="M39.4653 8.49584C39.8983 8.12645 40.3632 7.83468 40.9696 7.83468C41.9867 7.83468 42.5168 8.64244 42.5168 9.82965V11.3201C42.5168 11.8922 42.5279 12.4973 42.5488 12.8782C42.3101 12.9112 41.8771 12.9673 41.4234 12.9673C41.261 12.9673 41.2069 12.8997 41.2069 12.7316V9.88427C41.2069 9.22311 40.8711 8.85229 40.3729 8.85229C40.026 8.85229 39.7013 9.03195 39.464 9.23317V12.5965C39.464 12.7977 39.432 12.8652 39.2156 12.9098C38.8478 12.9543 38.512 12.9658 38.1221 12.9658C38.1443 12.3722 38.154 11.6996 38.154 10.9364V6.70928C38.154 6.03662 38.1318 5.73335 38.111 5.49907C38.3386 5.40996 39.031 5.29785 39.2697 5.29785C39.4209 5.29785 39.464 5.35391 39.464 6.03806V8.49296L39.4653 8.49584Z" fill="#02539C"/>
<path d="M45.9152 7.83472C47.4736 7.83472 48.2965 8.97881 48.2965 10.3687C48.2965 11.9382 47.3112 13.0363 45.7959 13.0363C44.3999 13.0363 43.4036 12.0719 43.4036 10.4808C43.4036 8.88969 44.454 7.83472 45.9041 7.83472H45.9152ZM45.7959 8.66404C45.1354 8.66404 44.7787 9.36975 44.7787 10.3342C44.7787 11.6119 45.2977 12.207 45.9152 12.207C46.5869 12.207 46.9213 11.5228 46.9213 10.4923C46.9213 9.53935 46.5966 8.66548 45.807 8.66548H45.7959V8.66404Z" fill="#02539C"/>
<path d="M49.2054 9.29218C49.2054 8.59653 49.1832 8.2602 49.1624 8.03598C49.4011 7.96843 50.0283 7.90088 50.31 7.90088C50.4723 7.90088 50.5154 7.95693 50.5154 8.60659V10.9609C50.5154 11.8247 51.0135 11.9929 51.4035 11.9929C51.7601 11.9929 52.0418 11.8132 52.2153 11.645V8.41687C52.2153 8.09204 52.2472 8.02449 52.4428 7.97993C52.9188 7.92388 53.1894 7.90088 53.5571 7.90088C53.5571 8.1366 53.5252 8.94292 53.5252 9.91885V11.6335C53.5252 12.082 53.6654 12.1941 53.9582 12.2501V12.3177C53.9152 12.654 53.5904 13.0349 53.3087 13.0349C52.7245 13.0349 52.4859 12.7431 52.3665 12.3177C52.0848 12.5865 51.7601 12.7661 51.5436 12.8782C51.3272 12.9674 51.1107 13.0349 50.8512 13.0349C49.6925 13.0349 49.2054 12.2386 49.2054 11.1405V9.29075V9.29218Z" fill="#02539C"/>
<path d="M56.4601 7.83472C56.8931 7.83472 57.3149 7.94683 57.673 8.2271C57.6841 8.51887 57.5536 8.95581 57.1748 8.92275C56.9583 8.82214 56.6877 8.74309 56.4282 8.74309C56.1035 8.74309 55.8759 8.92275 55.8759 9.19153C55.8759 9.42724 56.0494 9.56091 56.277 9.69602C56.4823 9.81963 56.9153 10.0208 57.1651 10.156C57.7063 10.4693 57.9228 10.8962 57.9228 11.3892C57.9228 12.4987 56.9708 13.0377 55.9856 13.0377C55.5637 13.0377 55.1086 12.9141 54.8171 12.7244C54.677 12.6238 54.5785 12.4887 54.5785 12.3205C54.5896 12.0848 54.7089 11.839 54.8602 11.7154C55.1738 11.9166 55.64 12.1193 56.073 12.1193C56.4629 12.1193 56.6905 11.9281 56.6905 11.6479C56.6905 11.4466 56.5823 11.3 56.2686 11.1319C55.9981 10.9752 55.7164 10.8401 55.4458 10.6834C55.0017 10.4262 54.6881 9.99929 54.6881 9.40568C54.6881 8.4082 55.5221 7.83615 56.4518 7.83615H56.4629L56.4601 7.83472Z" fill="#02539C"/>
<path d="M62.509 11.793C62.509 12.286 62.1302 12.7459 61.9456 12.835C61.7833 12.9141 61.3184 13.0363 60.9396 13.0363C59.359 13.0363 58.4931 12.1394 58.4931 10.4908C58.4931 9.13401 59.3479 7.83325 60.8091 7.83325C62.1843 7.83325 62.7144 8.86523 62.7255 9.76211C62.7255 9.91877 62.7144 10.0424 62.6936 10.1315C62.6617 10.2997 62.2287 10.4563 61.7846 10.5684C61.514 10.636 60.3886 10.6475 59.7933 10.6245C59.8475 11.6105 60.5399 12.0258 61.2768 12.0258C61.7957 12.0258 62.305 11.8577 62.4896 11.7686L62.5118 11.7916L62.509 11.793ZM60.6912 8.62089C60.2901 8.62089 59.8572 9.01327 59.8142 9.85409C60.2582 9.88715 61.0908 9.87709 61.3517 9.85409C61.428 9.85409 61.4918 9.74198 61.4918 9.61838C61.5029 9.06933 61.2532 8.62089 60.7023 8.62089H60.6912Z" fill="#02539C"/>
<path d="M63.8856 5.85122C64.0479 5.85122 64.1243 5.99639 64.3296 6.57993C64.7307 7.74558 65.412 9.59538 65.9532 11.3331C66.5374 9.57238 67.2201 7.65647 67.8474 5.83972C68.204 5.83972 68.6481 5.91877 68.7993 5.98489C68.9617 6.04094 68.9728 6.18611 68.8756 6.46638C68.118 8.5519 67.3062 10.5584 66.5166 12.5318C66.4306 12.733 66.3542 12.8566 66.246 12.9012C66.1156 12.9802 65.6937 13.0363 65.2497 13.0363C64.449 10.8171 63.5498 8.28313 62.6186 6.097C63.0516 5.96189 63.5609 5.84978 63.8856 5.84978V5.85122Z" fill="#6AB7D3"/>
<path d="M70.3493 5.48047C70.7601 5.48047 71.0099 5.7938 71.0099 6.20918C71.0099 6.62456 70.7171 6.97095 70.3063 6.97095C69.9705 6.97095 69.625 6.75823 69.625 6.24224C69.625 5.69319 70.069 5.48047 70.3396 5.48047H70.3507H70.3493ZM70.9766 12.6339C70.9766 12.8351 70.9002 12.8912 70.663 12.9257C70.4465 12.9587 70.0565 12.9702 69.6347 12.9702C69.6458 12.5103 69.6666 11.8606 69.6666 11.2095V9.29218C69.6666 8.60803 69.6444 8.2602 69.6236 8.03598C69.872 7.95693 70.5547 7.90088 70.7823 7.90088C70.9335 7.90088 70.9766 7.95693 70.9766 8.60659V12.631V12.6339Z" fill="#6AB7D3"/>
<path d="M75.2159 6.66912C75.2159 6.01946 75.1937 5.73918 75.1618 5.50347C75.3894 5.41436 76.104 5.30225 76.3205 5.30225C76.4828 5.30225 76.5259 5.3583 76.5259 6.04245V11.6479C76.5259 12.0849 76.666 12.197 76.9699 12.2645V12.2976C76.9158 12.6224 76.6133 13.0378 76.3094 13.0378C75.7141 13.0378 75.4754 12.7575 75.3672 12.4327C74.9661 12.7575 74.3819 13.0378 73.9712 13.0378C72.7042 13.0378 71.8383 12.0734 71.8383 10.5944C71.8383 8.9458 73.0289 7.8362 74.5665 7.8362C74.8593 7.8362 75.1188 7.89226 75.2159 7.94831V6.67055V6.66912ZM75.2159 8.78769C75.1077 8.73164 74.8801 8.66409 74.6095 8.66409C73.9601 8.66409 73.2135 9.15708 73.2135 10.4018C73.2135 11.4553 73.8199 12.0159 74.5346 12.0159C74.751 12.0159 75.0327 11.9368 75.2159 11.8146V8.78769Z" fill="#6AB7D3"/>
<path d="M81.4618 11.793C81.4618 12.286 81.083 12.7459 80.8984 12.835C80.7361 12.9141 80.2712 13.0363 79.8923 13.0363C78.3118 13.0363 77.4459 12.1394 77.4459 10.4908C77.4459 9.13401 78.3007 7.83325 79.7619 7.83325C81.1371 7.83325 81.6672 8.86523 81.6783 9.76211C81.6783 9.91877 81.6672 10.0424 81.6464 10.1315C81.6144 10.2997 81.1815 10.4563 80.7374 10.5684C80.4668 10.636 79.3414 10.6475 78.7461 10.6245C78.8003 11.6105 79.4927 12.0258 80.2296 12.0258C80.7485 12.0258 81.2578 11.8577 81.4424 11.7686L81.4646 11.7916L81.4618 11.793ZM79.644 8.62089C79.2429 8.62089 78.81 9.01327 78.7669 9.85409C79.211 9.88715 80.0436 9.87709 80.3045 9.85409C80.3808 9.85409 80.4446 9.74198 80.4446 9.61838C80.4557 9.06933 80.206 8.62089 79.6551 8.62089H79.644Z" fill="#6AB7D3"/>
<path d="M84.7215 7.83472C86.2798 7.83472 87.1027 8.97881 87.1027 10.3687C87.1027 11.9382 86.1174 13.0363 84.6021 13.0363C83.2061 13.0363 82.2098 12.0719 82.2098 10.4808C82.2098 8.88969 83.2602 7.83472 84.7103 7.83472H84.7215ZM84.6021 8.66404C83.9416 8.66404 83.5849 9.36975 83.5849 10.3342C83.5849 11.6119 84.1039 12.207 84.7215 12.207C85.3931 12.207 85.7275 11.5228 85.7275 10.4923C85.7275 9.53935 85.4028 8.66548 84.6132 8.66548H84.6021V8.66404Z" fill="#6AB7D3"/>
</g>
<defs>
<clipPath id="clip0_1409_111">
<rect width="87" height="20" fill="white"/>
</clipPath>
</defs>
</svg>
