<?xml version="1.0" encoding="UTF-8"?>
<svg width="26px" height="24px" viewBox="0 0 26 24" version="1.1" xmlns="http://www.w3.org/2000/svg" xmlns:xlink="http://www.w3.org/1999/xlink">
    <title>ic_cc_enabled@2x</title>
    <g id="v4" stroke="none" stroke-width="1" fill="none" fill-rule="evenodd">
        <g id="A03" transform="translate(-1111.000000, -848.000000)" fill="#83C36D" fill-rule="nonzero">
            <g id="toolbar" transform="translate(360.000000, 836.000000)">
                <g id="layout" transform="translate(740.000000, 0.000000)">
                    <path d="M34.1110885,12 L13.8889115,12 C12.2927552,12 11,13.3425443 11,15.0000176 L11,32.9999824 C11,34.6574557 12.2927552,36 13.8889115,36 L34.1111562,36 C35.7072448,36 37,34.6574557 37,32.9999824 L37,15.0000176 C37,13.3425443 35.7072448,12 34.1110885,12 Z M22.5000234,22.5000264 L20.2500234,22.5000264 L20.2500234,21.7500044 L17.25,21.7500044 L17.25,26.2499956 L20.2500234,26.2499956 L20.2500234,25.4999736 L22.5000234,25.4999736 L22.5000234,26.9999473 C22.5000234,27.8249222 21.8325469,28.4999209 21.0000469,28.4999209 L16.5000469,28.4999209 C15.6674766,28.4999209 15,27.8249925 15,27.0000088 L15,21.0000527 C15,20.1750075 15.6674766,19.5000088 16.4999766,19.5000088 L20.9999766,19.5000088 C21.8324766,19.5000088 22.5000234,20.1750075 22.5000234,20.9999824 L22.5000234,22.5000264 L22.5000234,22.5000264 Z M32.9999531,22.5000264 L30.7499531,22.5000264 L30.7499531,21.7500044 L27.7499297,21.7500044 L27.7499297,26.2499956 L30.7499531,26.2499956 L30.7499531,25.4999736 L32.9999531,25.4999736 L32.9999531,26.9999473 C32.9999531,27.8249925 32.3324766,28.4999912 31.4999766,28.4999912 L26.9999766,28.4999912 C26.1674766,28.4999912 25.5,27.8249925 25.5,27.0000176 L25.5,21.0000527 C25.5,20.1750778 26.1674766,19.5000791 26.9999766,19.5000791 L31.4999766,19.5000791 C32.3324766,19.5000791 32.9999531,20.1750778 32.9999531,21.0000527 L32.9999531,22.5000264 Z" id="ic_cc_enabled"></path>
                </g>
            </g>
        </g>
    </g>
</svg>