<svg width="24" height="24" viewBox="0 0 24 24" fill="none" xmlns="http://www.w3.org/2000/svg">
<mask id="mask0_357_12757" style="mask-type:alpha" maskUnits="userSpaceOnUse" x="0" y="0" width="24" height="24">
<rect width="24" height="24" fill="#D9D9D9"/>
</mask>
<g mask="url(#mask0_357_12757)">
<path d="M17 15C16.3 15 15.7083 14.7583 15.225 14.275C14.7417 13.7917 14.5 13.2 14.5 12.5C14.5 11.8 14.7417 11.2083 15.225 10.725C15.7083 10.2417 16.3 10 17 10C17.7 10 18.2917 10.2417 18.775 10.725C19.2583 11.2083 19.5 11.8 19.5 12.5C19.5 13.2 19.2583 13.7917 18.775 14.275C18.2917 14.7583 17.7 15 17 15ZM13 20C12.7167 20 12.4793 19.904 12.288 19.712C12.096 19.5207 12 19.2833 12 19V18.6C12 18.2 12.104 17.8293 12.312 17.488C12.5207 17.146 12.8167 16.9 13.2 16.75C13.8 16.5 14.421 16.3127 15.063 16.188C15.7043 16.0627 16.35 16 17 16C17.65 16 18.296 16.0627 18.938 16.188C19.5793 16.3127 20.2 16.5 20.8 16.75C21.1833 16.9 21.4793 17.146 21.688 17.488C21.896 17.8293 22 18.2 22 18.6V19C22 19.2833 21.904 19.5207 21.712 19.712C21.5207 19.904 21.2833 20 21 20H13ZM10 12C8.9 12 7.95833 11.6083 7.175 10.825C6.39167 10.0417 6 9.1 6 8C6 6.9 6.39167 5.95833 7.175 5.175C7.95833 4.39167 8.9 4 10 4C11.1 4 12.0417 4.39167 12.825 5.175C13.6083 5.95833 14 6.9 14 8C14 9.1 13.6083 10.0417 12.825 10.825C12.0417 11.6083 11.1 12 10 12ZM3 20C2.71667 20 2.47933 19.904 2.288 19.712C2.096 19.5207 2 19.2833 2 19V17C2 16.5667 2.15 16.1377 2.45 15.713C2.75 15.2877 3.19167 14.9167 3.775 14.6C4.675 14.1167 5.65833 13.7293 6.725 13.438C7.79167 13.146 8.88333 13 10 13C10.45 13 10.9293 13.0333 11.438 13.1C11.946 13.1667 12.4667 13.2667 13 13.4V14.7C12.7667 14.7833 12.5667 14.8667 12.4 14.95C12.2333 15.0333 12.0583 15.125 11.875 15.225C11.2583 15.575 10.7917 16.0333 10.475 16.6C10.1583 17.1667 10 17.6333 10 18V20H3Z" fill="white"/>
</g>
</svg>
