<svg width="40" height="40" viewBox="0 0 40 40" fill="none" xmlns="http://www.w3.org/2000/svg">
<circle cx="20" cy="20" r="19.5" stroke="#51575C"/>
<mask id="mask0_1281_2073" style="mask-type:alpha" maskUnits="userSpaceOnUse" x="8" y="8" width="24" height="24">
<rect x="8" y="8" width="24" height="24" fill="#D9D9D9"/>
</mask>
<g mask="url(#mask0_1281_2073)">
<path d="M20 22C19.1667 22 18.4583 21.7083 17.875 21.125C17.2917 20.5417 17 19.8333 17 19V13C17 12.1667 17.2917 11.4583 17.875 10.875C18.4583 10.2917 19.1667 10 20 10C20.8333 10 21.5417 10.2917 22.125 10.875C22.7083 11.4583 23 12.1667 23 13V19C23 19.8333 22.7083 20.5417 22.125 21.125C21.5417 21.7083 20.8333 22 20 22ZM20 29C19.7167 29 19.4793 28.904 19.288 28.712C19.096 28.5207 19 28.2833 19 28V25.9C17.45 25.7 16.1333 25.0583 15.05 23.975C13.9667 22.8917 13.3083 21.5917 13.075 20.075C13.025 19.7917 13.1 19.5417 13.3 19.325C13.5 19.1083 13.7667 19 14.1 19C14.3333 19 14.5417 19.0873 14.725 19.262C14.9083 19.4373 15.025 19.65 15.075 19.9C15.2917 21.0667 15.8583 22.0417 16.775 22.825C17.6917 23.6083 18.7667 24 20 24C21.2333 24 22.3083 23.6083 23.225 22.825C24.1417 22.0417 24.7083 21.0667 24.925 19.9C24.975 19.65 25.096 19.4373 25.288 19.262C25.4793 19.0873 25.6917 19 25.925 19C26.2417 19 26.5 19.1083 26.7 19.325C26.9 19.5417 26.975 19.7917 26.925 20.075C26.6917 21.5917 26.0333 22.8917 24.95 23.975C23.8667 25.0583 22.55 25.7 21 25.9V28C21 28.2833 20.9043 28.5207 20.713 28.712C20.521 28.904 20.2833 29 20 29Z" fill="#51575C"/>
</g>
</svg>
