<?xml version="1.0" encoding="UTF-8"?>
<svg width="24px" height="24px" viewBox="0 0 24 24" version="1.1" xmlns="http://www.w3.org/2000/svg" xmlns:xlink="http://www.w3.org/1999/xlink">
    <title>light_mode / icons / nav_bar / icon_settings_beauty_screen</title>
    <defs>
        <path d="M14.4635972,0 C14.7719106,0 15.024876,0.221997714 15.0803179,0.503990857 L15.0803179,0.503990857 L15.5427409,3.68400457 C16.2951533,3.98999771 16.9920298,4.392 17.6271685,4.86600229 L17.6271685,4.86600229 L20.69818,3.66000457 C20.9757654,3.552 21.2963887,3.66000457 21.4504984,3.91799771 L21.4504984,3.91799771 L23.9171932,8.07597714 C24.0713968,8.34002286 24.003551,8.66404571 23.7691915,8.84406857 L23.7691915,8.84406857 L21.160791,10.8299886 C21.2101249,11.2139886 21.2470548,11.6040229 21.2470548,12 C21.2470548,12.3959771 21.2101249,12.7860114 21.160791,13.1700114 L21.160791,13.1700114 L23.7630835,15.1559314 C23.997443,15.34208 24.0651949,15.6660114 23.9110852,15.9240229 L23.9110852,15.9240229 L21.4442964,20.0820114 C21.2901867,20.3400229 20.9694694,20.4419657 20.692072,20.3400229 L20.692072,20.3400229 L17.6209665,19.1339886 C16.9858278,19.61408 16.2890453,20.0100571 15.5366329,20.3159771 L15.5366329,20.3159771 L15.0742099,23.4959543 C15.024876,23.7780114 14.7719106,24 14.4635972,24 L14.4635972,24 L9.53020766,24 C9.22180034,24 8.96902285,23.7780114 8.91968896,23.4959543 L8.91968896,23.4959543 L8.45726591,20.3159771 C7.70485353,20.0100571 7.00797702,19.6079543 6.37284775,19.1339886 L6.37284775,19.1339886 L3.30181745,20.3400229 C3.02431664,20.448 2.70364632,20.3400229 2.54948025,20.0820114 L2.54948025,20.0820114 L0.0827854745,15.9240229 C-0.0713805996,15.6599771 -0.00355354102,15.3359543 0.230787161,15.1559314 L0.230787161,15.1559314 L2.83315484,13.1700114 C2.78382095,12.7860114 2.74681583,12.3959771 2.74681583,12 C2.74681583,11.6040229 2.78382095,11.2139886 2.83315484,10.8299886 L2.83315484,10.8299886 L0.230787161,8.84406857 C-0.00355354102,8.65792 -0.0713805996,8.33398857 0.0827854745,8.07597714 L0.0827854745,8.07597714 L2.54948025,3.91799771 C2.70364632,3.66000457 3.02431664,3.55799771 3.30181745,3.66000457 L3.30181745,3.66000457 L6.37284775,4.86600229 C7.00797702,4.38600229 7.70485353,3.98999771 8.45726591,3.68400457 L8.45726591,3.68400457 L8.91968896,0.503990857 C8.96902285,0.221997714 9.22180034,0 9.53020766,0 L9.53020766,0 Z M12,7.5 C9.51471863,7.5 7.5,9.51471863 7.5,12 C7.5,14.4852814 9.51471863,16.5 12,16.5 C14.4852814,16.5 16.5,14.4852814 16.5,12 C16.5,9.51471863 14.4852814,7.5 12,7.5 Z" id="path-1"></path>
    </defs>
    <g id="Symbols" stroke="none" stroke-width="1" fill="none" fill-rule="evenodd">
        <g id="icon_settings" transform="translate(-0.000000, -0.000000)">
            <mask id="mask-2" fill="white">
                <use xlink:href="#path-1"></use>
            </mask>
            <use id="Combined-Shape" fill="#51575C" xlink:href="#path-1"></use>
        </g>
    </g>
</svg>