<?xml version="1.0" encoding="UTF-8"?>
<svg width="12px" height="12px" viewBox="0 0 12 12" version="1.1" xmlns="http://www.w3.org/2000/svg" xmlns:xlink="http://www.w3.org/1999/xlink">
    <title>icon_play@0.0x</title>
    <g id="v4" stroke="none" stroke-width="1" fill="none" fill-rule="evenodd">
        <g id="B03" transform="translate(-444.000000, -207.000000)" fill="#51575C" fill-rule="nonzero">
            <g id="pop-up" transform="translate(226.000000, 69.000000)">
                <g id="test-sound" transform="translate(200.500000, 138.000000)">
                    <path d="M23.5,0 C20.1860457,0 17.5,2.68604571 17.5,6 C17.5,9.31392 20.1860457,12 23.5,12 C26.81392,12 29.5,9.31392 29.5,6 C29.5,2.68604571 26.81392,0 23.5,0 Z M26.2333232,6.47429647 L22.4649028,8.89852355 C22.360066,8.96566815 22.2380452,9 22.1156995,9 C22.0172165,9 21.9194555,8.97812484 21.82942,8.93413821 C21.6270749,8.83404584 21.5,8.63784454 21.5,8.42429164 L21.5,3.57576997 C21.5,3.36221707 21.6270749,3.16598202 21.82942,3.06588965 C22.0317651,2.96664123 22.2762399,2.9803132 22.4649028,3.1015043 L26.2333232,5.52569762 C26.4000729,5.63304795 26.5,5.81064861 26.5,6 C26.5,6.18934548 26.400109,6.36694614 26.2333232,6.47429647 Z" id="icon_play"></path>
                </g>
            </g>
        </g>
    </g>
</svg>