<svg width="40" height="40" viewBox="0 0 40 40" fill="none" xmlns="http://www.w3.org/2000/svg">
<circle cx="20" cy="20" r="19.5" stroke="#E4281B"/>
<mask id="mask0_1286_2088" style="mask-type:alpha" maskUnits="userSpaceOnUse" x="8" y="8" width="24" height="24">
<rect x="8" y="8" width="24" height="24" fill="#D9D9D9"/>
</mask>
<g mask="url(#mask0_1286_2088)">
<path d="M25.75 22.95L24.3 21.5C24.45 21.25 24.5793 20.9917 24.688 20.725C24.796 20.4583 24.875 20.1833 24.925 19.9C24.975 19.65 25.096 19.4373 25.288 19.262C25.4793 19.0873 25.6917 19 25.925 19C26.2417 19 26.5 19.1083 26.7 19.325C26.9 19.5417 26.975 19.7917 26.925 20.075C26.8417 20.6083 26.7 21.1123 26.5 21.587C26.3 22.0623 26.05 22.5167 25.75 22.95ZM22.8 19.95L17 14.15V13C17 12.1667 17.2917 11.4583 17.875 10.875C18.4583 10.2917 19.1667 10 20 10C20.8333 10 21.5417 10.2917 22.125 10.875C22.7083 11.4583 23 12.1667 23 13V19C23 19.1833 22.9793 19.35 22.938 19.5C22.896 19.65 22.85 19.8 22.8 19.95ZM27.1 29.9L10.1 12.9C9.91668 12.7167 9.82501 12.4833 9.82501 12.2C9.82501 11.9167 9.91668 11.6833 10.1 11.5C10.2833 11.3167 10.5167 11.225 10.8 11.225C11.0833 11.225 11.3167 11.3167 11.5 11.5L28.5 28.5C28.6833 28.6833 28.775 28.9167 28.775 29.2C28.775 29.4833 28.6833 29.7167 28.5 29.9C28.3167 30.0833 28.0833 30.175 27.8 30.175C27.5167 30.175 27.2833 30.0833 27.1 29.9ZM19 28V25.9C17.45 25.7 16.1333 25.0583 15.05 23.975C13.9667 22.8917 13.3083 21.5917 13.075 20.075C13.025 19.7917 13.1 19.5417 13.3 19.325C13.5 19.1083 13.7667 19 14.1 19C14.3333 19 14.5417 19.0873 14.725 19.262C14.9083 19.4373 15.025 19.65 15.075 19.9C15.2917 21.0667 15.8583 22.0417 16.775 22.825C17.6917 23.6083 18.7667 24 20 24C20.5667 24 21.1043 23.9127 21.613 23.738C22.121 23.5627 22.5833 23.3167 23 23L24.425 24.425C23.9417 24.8083 23.4127 25.129 22.838 25.387C22.2627 25.6457 21.65 25.8167 21 25.9V28C21 28.2833 20.9043 28.5207 20.713 28.712C20.521 28.904 20.2833 29 20 29C19.7167 29 19.4793 28.904 19.288 28.712C19.096 28.5207 19 28.2833 19 28Z" fill="#E4281B"/>
</g>
</svg>