<svg width="40" height="40" viewBox="0 0 40 40" fill="none" xmlns="http://www.w3.org/2000/svg">
<circle cx="20" cy="20" r="19.5" stroke="#51575C"/>
<mask id="mask0_1281_2076" style="mask-type:alpha" maskUnits="userSpaceOnUse" x="8" y="8" width="24" height="24">
<rect x="8" y="8" width="24" height="24" fill="#D9D9D9"/>
</mask>
<g mask="url(#mask0_1281_2076)">
<path d="M12 28C11.45 28 10.9793 27.8043 10.588 27.413C10.196 27.021 10 26.55 10 26V14C10 13.45 10.196 12.9793 10.588 12.588C10.9793 12.196 11.45 12 12 12H24C24.55 12 25.021 12.196 25.413 12.588C25.8043 12.9793 26 13.45 26 14V18.5L29.15 15.35C29.3 15.2 29.4793 15.1623 29.688 15.237C29.896 15.3123 30 15.4667 30 15.7V24.3C30 24.5333 29.896 24.6873 29.688 24.762C29.4793 24.8373 29.3 24.8 29.15 24.65L26 21.5V26C26 26.55 25.8043 27.021 25.413 27.413C25.021 27.8043 24.55 28 24 28H12Z" fill="#51575C"/>
</g>
</svg>
