<?xml version="1.0" encoding="UTF-8"?>
<svg width="24px" height="24px" viewBox="0 0 24 24" version="1.1" xmlns="http://www.w3.org/2000/svg" xmlns:xlink="http://www.w3.org/1999/xlink">
    <title>light_mode / icons / icon_phone</title>
    <g id="Symbols" stroke="none" stroke-width="1" fill="none" fill-rule="evenodd">
        <g id="Shape" fill="#107DB7">
            <path d="M22.9042156,17.4136364 C21.9088921,16.3909091 19.0797194,14.475 17.2254182,14.475 C16.7959293,14.475 16.4209787,14.5704545 16.1142009,14.7681818 C15.2075022,15.3477273 14.4848701,15.7977273 14.1371886,15.7977273 C13.9463047,15.7977273 13.7417862,15.6272727 13.2918455,15.2386364 L13.2168553,15.1704545 C11.9692924,14.0863636 11.7034183,13.8068182 11.2193912,13.3022727 L11.0966801,13.1727273 C11.0080554,13.0840909 10.9330653,13.0022727 10.8580752,12.9272727 C10.4354036,12.4909091 10.1286258,12.1772727 9.04467767,10.95 L8.99695669,10.8954545 C8.47884312,10.3090909 8.13797893,9.92727273 8.11752708,9.64772727 C8.09707523,9.375 8.33568016,8.93181818 8.94241842,8.10681818 C9.67868506,7.11136364 9.7059542,5.88409091 9.03104311,4.45909091 C8.49247769,3.33409091 7.61304809,2.25681818 6.83587774,1.30909091 L6.7677049,1.22727273 C6.09961109,0.409090909 5.32244074,0 4.45664571,0 C3.4954087,0 2.6977865,0.518181818 2.2751149,0.790909091 C2.24102848,0.811363636 2.20694207,0.838636364 2.17285565,0.859090909 C1.2252532,1.45909091 0.536707545,2.28409091 0.277650763,3.12272727 C-0.110934411,4.38409091 -0.369991194,6.02045455 1.49112727,9.42272727 C3.10000624,12.3681818 4.55890496,14.3454545 6.87678144,16.725 C9.05831224,18.9613636 10.0263665,19.6840909 12.1942628,21.2522727 C14.6075812,22.9977273 16.9254577,24 18.5479712,24 C20.0545909,24 21.2407983,24 22.9314847,21.9613636 C24.7039785,19.8204545 23.9677118,18.5113636 22.9042156,17.4136364 L22.9042156,17.4136364 Z M22.1202279,21.225 C20.7567712,22.875 19.9727835,22.875 18.5547885,22.875 C17.1708799,22.875 15.0234355,21.9204545 12.8146356,20.3318182 C10.7012776,18.8045455 9.76049247,18.1022727 7.64031722,15.9272727 C5.39743086,13.6295455 3.98625313,11.7136364 2.43191243,8.87045455 C0.788947044,5.86363636 0.973013706,4.54772727 1.30706061,3.46363636 C1.48430999,2.88409091 2.01605812,2.26363636 2.7386902,1.81363636 C2.77277662,1.79318182 2.80686304,1.76590909 2.84776674,1.74545455 C3.20908278,1.51363636 3.80900375,1.125 4.46346299,1.125 C5.00884569,1.125 5.49287284,1.39772727 5.95644813,1.96363636 L6.02462097,2.04545455 C7.76302833,4.17272727 9.1196678,6.05454545 8.09707523,7.44545455 C7.37444315,8.42045455 6.99267526,9.08181818 7.05403082,9.76363636 C7.10856909,10.425 7.55169253,10.9227273 8.21978634,11.6727273 L8.26750733,11.7272727 C9.36509001,12.9681818 9.67868506,13.2954545 10.1149912,13.7386364 C10.1899813,13.8136364 10.2649715,13.8954545 10.3535962,13.9840909 L10.4763073,14.1136364 C10.9807863,14.6386364 11.2602949,14.925 12.5419442,16.05 L12.6169344,16.1181818 C13.1623171,16.5954545 13.5645368,16.9431818 14.1508232,16.9431818 C14.7575615,16.9431818 15.4256553,16.5613636 16.69367,15.75 C16.8231984,15.6681818 17.0072651,15.6204545 17.2390527,15.6204545 C18.7184033,15.6204545 21.2680674,17.3113636 22.1611316,18.2318182 C22.9792057,19.0636364 23.3882427,19.6909091 22.1202279,21.225 L22.1202279,21.225 Z"></path>
        </g>
    </g>
</svg>