<?xml version="1.0" encoding="UTF-8"?>
<svg width="16px" height="16px" viewBox="0 0 16 16" version="1.1" xmlns="http://www.w3.org/2000/svg" xmlns:xlink="http://www.w3.org/1999/xlink">
    <title>light_mode / icons / icon_locked</title>
    <g id="Symbols" stroke="none" stroke-width="1" fill="none" fill-rule="evenodd">
        <g id="light_mode-/-icons-/-icon_locked">
            <rect id="Rectangle" x="0" y="0" width="16" height="16"></rect>
            <path d="M7.99996596,0 C10.0735416,0 11.7529013,1.70570571 11.7529013,3.81181181 L11.7529013,3.81181181 L11.7529013,5.33333333 L12.5097958,5.33333333 C13.3297649,5.33333333 14.0078162,6.02202202 13.9999319,6.85485485 L13.9999319,6.85485485 L13.9999319,14.4784785 C13.9999319,15.3113113 13.3297649,16 12.5019115,16 L12.5019115,16 L3.49802041,16 C2.67805134,16 2,15.3193193 2,14.4784785 L2,14.4784785 L2,6.85485485 C2,6.02202202 2.67016703,5.33333333 3.49802041,5.33333333 L3.49802041,5.33333333 L4.24703062,5.33333333 L4.24703062,3.81181181 C4.24703062,1.70570571 5.92639034,0 7.99996596,0 Z M8.00785028,9.14514515 C7.18788121,9.14514515 6.50982987,9.83383383 6.50982987,10.6666667 C6.50982987,11.4994995 7.1799969,12.1881882 8.00785028,12.1881882 C8.82781935,12.1881882 9.50587069,11.4994995 9.50587069,10.6666667 C9.50587069,9.83383383 8.82781935,9.14514515 8.00785028,9.14514515 Z M8.00785028,1.44944945 C6.72270646,1.44944945 5.68197649,2.50650651 5.68197649,3.81181181 L5.68197649,3.81181181 L5.68197649,5.33333333 L10.3337241,5.33333333 L10.3337241,3.81181181 C10.3337241,2.50650651 9.29299411,1.44944945 8.00785028,1.44944945 Z" id="Combined-Shape" fill="#51575C"></path>
        </g>
    </g>
</svg>