<svg width="40" height="40" viewBox="0 0 40 40" fill="none" xmlns="http://www.w3.org/2000/svg">
<circle cx="20" cy="20" r="19.5" stroke="#A9B2B9"/>
<mask id="mask0_1286_2087" style="mask-type:alpha" maskUnits="userSpaceOnUse" x="8" y="8" width="24" height="24">
<rect x="8" y="8" width="24" height="24" fill="#D9D9D9"/>
</mask>
<g mask="url(#mask0_1286_2087)">
<path d="M27.1 29.9L24.775 27.575C24.5417 27.7083 24.3083 27.8373 24.075 27.962C23.8417 28.0873 23.6 28.2 23.35 28.3C23.0167 28.4333 22.7083 28.3916 22.425 28.175C22.1417 27.9583 22 27.6583 22 27.275C22 27.0916 22.0543 26.9293 22.163 26.788C22.271 26.646 22.4083 26.5416 22.575 26.475C22.7083 26.425 22.8377 26.3706 22.963 26.312C23.0877 26.254 23.2083 26.1916 23.325 26.125L20 22.8V25.575C20 26.025 19.7957 26.3373 19.387 26.512C18.979 26.6873 18.6167 26.6166 18.3 26.3L15 23H12C11.7167 23 11.4793 22.904 11.288 22.712C11.096 22.5206 11 22.2833 11 22V18C11 17.7166 11.096 17.479 11.288 17.287C11.4793 17.0956 11.7167 17 12 17H14.2L10.1 12.9C9.91668 12.7166 9.82501 12.4833 9.82501 12.2C9.82501 11.9166 9.91668 11.6833 10.1 11.5C10.2833 11.3166 10.5167 11.225 10.8 11.225C11.0833 11.225 11.3167 11.3166 11.5 11.5L28.5 28.5C28.6833 28.6833 28.775 28.9166 28.775 29.2C28.775 29.4833 28.6833 29.7166 28.5 29.9C28.3167 30.0833 28.0833 30.175 27.8 30.175C27.5167 30.175 27.2833 30.0833 27.1 29.9ZM23.35 11.65C25.05 12.3333 26.4167 13.425 27.45 14.925C28.4833 16.425 29 18.1083 29 19.975C29 20.8583 28.8793 21.7083 28.638 22.525C28.396 23.3416 28.05 24.1 27.6 24.8L26.15 23.35C26.4333 22.8333 26.646 22.2916 26.788 21.725C26.9293 21.1583 27 20.575 27 19.975C27 18.5083 26.596 17.1916 25.788 16.025C24.9793 14.8583 23.9083 14.0083 22.575 13.475C22.3917 13.4083 22.25 13.3 22.15 13.15C22.05 13 22 12.8333 22 12.65C22 12.2833 22.1417 11.9916 22.425 11.775C22.7083 11.5583 23.0167 11.5166 23.35 11.65ZM24.25 21.45L22 19.2V15.95C22.7833 16.3166 23.396 16.8666 23.838 17.6C24.2793 18.3333 24.5 19.1333 24.5 20C24.5 20.25 24.4793 20.496 24.438 20.738C24.396 20.9793 24.3333 21.2166 24.25 21.45ZM20 17.2L17.4 14.6L18.3 13.7C18.6167 13.3833 18.979 13.3123 19.387 13.487C19.7957 13.6623 20 13.975 20 14.425V17.2Z" fill="#A9B2B9"/>
</g>
</svg>