<svg width="40" height="40" viewBox="0 0 40 40" fill="none" xmlns="http://www.w3.org/2000/svg">
<circle cx="20" cy="20" r="19.5" stroke="#E4281B"/>
<mask id="mask0_1286_2089" style="mask-type:alpha" maskUnits="userSpaceOnUse" x="8" y="8" width="24" height="24">
<rect x="8" y="8" width="24" height="24" fill="#D9D9D9"/>
</mask>
<g mask="url(#mask0_1286_2089)">
<path d="M27.875 30.65L9.35001 12.125C9.16668 11.9416 9.07501 11.7166 9.07501 11.45C9.07501 11.1833 9.17501 10.95 9.37501 10.75C9.55835 10.5666 9.79168 10.475 10.075 10.475C10.3583 10.475 10.5917 10.5666 10.775 10.75L29.3 29.275C29.4833 29.4583 29.575 29.6833 29.575 29.95C29.575 30.2166 29.475 30.45 29.275 30.65C29.0917 30.8333 28.8583 30.925 28.575 30.925C28.2917 30.925 28.0583 30.8333 27.875 30.65ZM26.025 23.175L14.85 12H24.025C24.575 12 25.046 12.196 25.438 12.588C25.8293 12.9793 26.025 13.45 26.025 14V18.5L29.175 15.35C29.325 15.2 29.5043 15.1623 29.713 15.237C29.921 15.3123 30.025 15.4666 30.025 15.7V24.3C30.025 24.5333 29.921 24.6873 29.713 24.762C29.5043 24.8373 29.325 24.8 29.175 24.65L26.025 21.5V23.175ZM12.025 12L26.025 26C26.0083 26.5333 25.8 27 25.4 27.4C25 27.8 24.5333 28 24 28H12C11.45 28 10.9793 27.8043 10.588 27.413C10.196 27.021 10 26.55 10 26V14C10 13.4666 10.204 13 10.612 12.6C11.0207 12.2 11.4917 12 12.025 12Z" fill="#E4281B"/>
</g>
</svg>
