<?xml version="1.0" encoding="UTF-8"?>
<svg width="12px" height="12px" viewBox="0 0 12 12" version="1.1" xmlns="http://www.w3.org/2000/svg" xmlns:xlink="http://www.w3.org/1999/xlink">
    <title>icon_play@0.0x</title>
    <g id="v4" stroke="none" stroke-width="1" fill="none" fill-rule="evenodd">
        <g id="E01" transform="translate(-444.000000, -207.000000)" fill="#A9B2B9" fill-rule="nonzero">
            <g id="pop-up" transform="translate(226.000000, 69.000000)">
                <g id="test-sound" transform="translate(178.500000, 138.000000)">
                    <path d="M45.5,0 C42.1860457,0 39.5,2.68604571 39.5,6 C39.5,9.31392 42.1860457,12 45.5,12 C48.81392,12 51.5,9.31392 51.5,6 C51.5,2.68604571 48.81392,0 45.5,0 Z M48.2333232,6.47429647 L44.4649028,8.89852355 C44.360066,8.96566815 44.2380452,9 44.1156995,9 C44.0172165,9 43.9194555,8.97812484 43.82942,8.93413821 C43.6270749,8.83404584 43.5,8.63784454 43.5,8.42429164 L43.5,3.57576997 C43.5,3.36221707 43.6270749,3.16598202 43.82942,3.06588965 C44.0317651,2.96664123 44.2762399,2.9803132 44.4649028,3.1015043 L48.2333232,5.52569762 C48.4000729,5.63304795 48.5,5.81064861 48.5,6 C48.5,6.18934548 48.400109,6.36694614 48.2333232,6.47429647 Z" id="icon_play"></path>
                </g>
            </g>
        </g>
    </g>
</svg>