<svg width="40" height="40" viewBox="0 0 40 40" fill="none" xmlns="http://www.w3.org/2000/svg">
<circle cx="20" cy="20" r="19.5" stroke="#51575C"/>
<mask id="mask0_1280_2074" style="mask-type:alpha" maskUnits="userSpaceOnUse" x="8" y="8" width="24" height="24">
<rect x="8" y="8" width="24" height="24" fill="#D9D9D9"/>
</mask>
<g mask="url(#mask0_1280_2074)">
<path d="M23.35 28.3C23.0167 28.4334 22.7083 28.3917 22.425 28.175C22.1417 27.9584 22 27.6584 22 27.275C22 27.0917 22.0543 26.9294 22.163 26.788C22.271 26.646 22.4083 26.5417 22.575 26.475C23.9083 25.9417 24.9793 25.0917 25.788 23.925C26.596 22.7584 27 21.4417 27 19.975C27 18.5084 26.596 17.1917 25.788 16.025C24.9793 14.8584 23.9083 14.0084 22.575 13.475C22.3917 13.4084 22.25 13.3 22.15 13.15C22.05 13 22 12.8334 22 12.65C22 12.2834 22.1417 11.9917 22.425 11.775C22.7083 11.5584 23.0167 11.5167 23.35 11.65C25.05 12.3334 26.4167 13.425 27.45 14.925C28.4833 16.425 29 18.1084 29 19.975C29 21.8417 28.4833 23.525 27.45 25.025C26.4167 26.525 25.05 27.6167 23.35 28.3ZM12 23C11.7167 23 11.4793 22.904 11.288 22.712C11.096 22.5207 11 22.2834 11 22V18C11 17.7167 11.096 17.479 11.288 17.287C11.4793 17.0957 11.7167 17 12 17H15L18.3 13.7C18.6167 13.3834 18.979 13.3124 19.387 13.487C19.7957 13.6624 20 13.975 20 14.425V25.575C20 26.025 19.7957 26.3374 19.387 26.512C18.979 26.6874 18.6167 26.6167 18.3 26.3L15 23H12ZM22 24V15.95C22.75 16.3 23.354 16.8417 23.812 17.575C24.2707 18.3084 24.5 19.1167 24.5 20C24.5 20.8834 24.2707 21.6834 23.812 22.4C23.354 23.1167 22.75 23.65 22 24Z" fill="#51575C"/>
</g>
</svg>
