<?xml version="1.0" encoding="UTF-8"?>
<svg width="20px" height="20px" viewBox="0 0 20 20" version="1.1" xmlns="http://www.w3.org/2000/svg" xmlns:xlink="http://www.w3.org/1999/xlink">
    <title>Group 3</title>
    <g id="UX-383-Raise-Hand-v6" stroke="none" stroke-width="1" fill="none" fill-rule="evenodd">
        <g id="A05" transform="translate(-1250.000000, -858.000000)">
            <g id="in-call-toolbar-1440x900" transform="translate(0.000000, 836.000000)">
                <g id="Group-3" transform="translate(1250.000000, 22.000000)">
                    <rect id="Rectangle" x="0" y="0" width="20" height="20"></rect>
                    <path d="M14.9570909,19.4763636 C14.9570909,19.47584 14.9570909,17.4905949 14.9632349,15.76832 C15.6356189,14.8683287 16.0043636,13.762688 16.0043636,12.6341818 L16.0043636,2.88 C16.0043636,2.44618473 15.6526895,2.09454545 15.2189091,2.09454545 C14.7850938,2.09454545 14.4334545,2.44618473 14.4334545,2.88 L14.4334545,7.92145455 C14.4334545,8.21057164 14.1989353,8.44509091 13.9098182,8.44509091 C13.6206313,8.44509091 13.3861818,8.21057164 13.3861818,7.92145455 L13.3861818,1.83272727 C13.3861818,1.398912 13.0345076,1.04727273 12.6007273,1.04727273 C12.166912,1.04727273 11.8152727,1.398912 11.8152727,1.83272727 L11.8152727,7.92145455 C11.8152727,8.21057164 11.5807535,8.44509091 11.2916364,8.44509091 C11.0024495,8.44509091 10.768,8.21057164 10.768,7.92145455 L10.768,0.785454545 C10.768,0.351639273 10.4163258,0 9.98254545,0 C9.54873018,0 9.19709091,0.351639273 9.19709091,0.785454545 L9.19709091,7.92145455 C9.19709091,8.21057164 8.96257164,8.44509091 8.67345455,8.44509091 C8.38426764,8.44509091 8.14981818,8.21057164 8.14981818,7.92145455 L8.14981818,1.83272727 C8.14981818,1.398912 7.798144,1.04727273 7.36436364,1.04727273 C6.93054836,1.04727273 6.57890909,1.398912 6.57890909,1.83272727 L6.57890909,10.5396364 C6.57890909,10.8287535 6.34438982,11.0632727 6.05527273,11.0632727 C5.76608582,11.0632727 5.53163636,10.8287535 5.53163636,10.5396364 L5.53163636,8.18327273 C5.53163636,7.74945745 5.17996218,7.39781818 4.74618182,7.39781818 C4.31236655,7.39781818 3.99563636,7.74945745 3.99563636,8.18327273 L3.99563636,12.1105455 C3.99563636,14.1999244 5.20897164,16.0842822 7.10254545,16.9112436 L7.10254545,19.4763636 C7.10254545,19.7657949 7.33668073,20 7.62618182,20 L14.4334545,20 C14.7228858,20 14.9570909,19.7657949 14.9570909,19.4763636 Z" id="Path" fill="#83C36D" fill-rule="nonzero"></path>
                </g>
            </g>
        </g>
    </g>
</svg>