<svg width="18" height="16" viewBox="0 0 18 16" fill="none" xmlns="http://www.w3.org/2000/svg">
<path d="M1.4 15.425C1.06667 15.5583 0.75 15.529 0.45 15.337C0.15 15.1457 0 14.8667 0 14.5V10.775C0 10.5417 0.0666667 10.3333 0.2 10.15C0.333333 9.96666 0.516667 9.84999 0.75 9.79999L8 7.99999L0.75 6.19999C0.516667 6.14999 0.333333 6.03333 0.2 5.84999C0.0666667 5.66666 0 5.45833 0 5.22499V1.49999C0 1.13333 0.15 0.853995 0.45 0.661995C0.75 0.470661 1.06667 0.441661 1.4 0.574994L16.8 7.07499C17.2167 7.25833 17.425 7.56666 17.425 7.99999C17.425 8.43333 17.2167 8.74166 16.8 8.92499L1.4 15.425Z" fill="#107DB7"/>
</svg>
