<?xml version="1.0" encoding="UTF-8"?>
<svg width="16px" height="16px" viewBox="0 0 16 16" version="1.1" xmlns="http://www.w3.org/2000/svg" xmlns:xlink="http://www.w3.org/1999/xlink">
    <title>icon_speaker@0.0x</title>
    <g id="v4" stroke="none" stroke-width="1" fill="none" fill-rule="evenodd">
        <g id="A03" transform="translate(-338.000000, -152.000000)" fill="#51575C">
            <g id="pop-up" transform="translate(226.000000, 69.000000)">
                <g id="device" transform="translate(112.000000, 76.000000)">
                    <g id="icon_speaker" transform="translate(0.000000, 7.000000)">
                        <path d="M0.00166664437,5.3006 L0.00166664437,10.7006 L3.55666664,10.7006 L8.00066664,15.2006 L8.00066664,0.8006 L3.55666664,5.3006 L0.00166664437,5.3006 L0.00166664437,5.3006 Z M9.60066664,0.0011 C13.3419706,0.843029199 16,4.16568366 16,8.00055 C16,11.8354163 13.3419706,15.1580708 9.60066664,16 L9.60066664,16 L9.60066664,14.1165 C12.3113735,13.3161641 14.1718477,10.826988 14.1718477,8.0006 C14.1718477,5.17421201 12.3113735,2.68503594 9.60066664,1.8847 L9.60066664,1.8847 Z M9.60066664,4.0006 C11.0859209,4.77875298 12.0120792,6.32138538 12.0006666,7.9981 C12.0108981,9.67577146 11.0853494,11.2193168 9.60066664,12.0006 L9.60066664,12.0006 Z" id="Combined-Shape"></path>
                    </g>
                </g>
            </g>
        </g>
    </g>
</svg>