<svg width="85" height="87" viewBox="0 0 85 87" fill="none" xmlns="http://www.w3.org/2000/svg">
<g clip-path="url(#clip0_1341_8085)">
<path d="M28.3646 48.5637L21.6 65.4201H18.4488L11.6841 48.5637H14.4877C14.7883 48.5637 15.0345 48.6353 15.2224 48.7786C15.4122 48.9218 15.5531 49.1066 15.6452 49.3309L19.2812 59.0436C19.4202 59.4074 19.5574 59.8051 19.6927 60.2348C19.828 60.6646 19.9539 61.1151 20.0685 61.5882C20.1681 61.1151 20.279 60.6646 20.3992 60.2348C20.5195 59.8051 20.6492 59.4074 20.7863 59.0436L24.3998 49.3309C24.4768 49.1367 24.614 48.9614 24.8113 48.8031C25.0086 48.6448 25.2529 48.5656 25.546 48.5656H28.3609L28.3646 48.5637Z" fill="#414243"/>
<path d="M33.1469 50.0395C33.1469 50.3109 33.0924 50.5616 32.9853 50.7954C32.8763 51.0272 32.7316 51.2326 32.5512 51.4117C32.369 51.5908 32.1566 51.7303 31.9142 51.8301C31.6718 51.93 31.4106 51.9809 31.1325 51.9809C30.8695 51.9809 30.6214 51.93 30.3847 51.8301C30.1498 51.7303 29.9431 51.5908 29.7646 51.4117C29.586 51.2345 29.447 51.0291 29.3418 50.7954C29.2384 50.5635 29.1858 50.3109 29.1858 50.0395C29.1858 49.7681 29.2384 49.5155 29.3418 49.278C29.4451 49.0424 29.586 48.8351 29.7646 48.656C29.9431 48.477 30.1479 48.3394 30.3847 48.2376C30.6195 48.1377 30.8695 48.0868 31.1325 48.0868C31.4106 48.0868 31.6718 48.1377 31.9142 48.2376C32.1566 48.3375 32.369 48.477 32.5512 48.656C32.7316 48.8351 32.8782 49.0405 32.9853 49.278C33.0924 49.5136 33.1469 49.7681 33.1469 50.0395ZM32.7654 53.4436V65.422H29.5691V53.4436H32.7654Z" fill="#414243"/>
<path d="M46.0731 48.0981V65.42H44.1038C43.6942 65.42 43.433 65.2334 43.3165 64.8621L43.0496 63.816C42.811 64.0799 42.5573 64.3193 42.2905 64.536C42.0237 64.7528 41.7362 64.9413 41.428 65.0996C41.1198 65.2579 40.7872 65.3805 40.4321 65.4653C40.0769 65.5501 39.6917 65.5935 39.2746 65.5935C38.6338 65.5935 38.0475 65.4577 37.5139 65.1863C36.9802 64.9149 36.5198 64.5191 36.129 63.9951C35.7381 63.473 35.4356 62.8321 35.2195 62.0725C35.0034 61.3129 34.8944 60.4459 34.8944 59.4695C34.8944 58.5798 35.0166 57.7505 35.259 56.9834C35.5014 56.2162 35.8471 55.5546 36.2962 54.9967C36.7435 54.4388 37.2846 54.0015 37.9179 53.6848C38.5511 53.3682 39.2539 53.208 40.0262 53.208C40.6745 53.208 41.2213 53.3041 41.6648 53.4982C42.1082 53.6924 42.5122 53.9563 42.8749 54.288V48.0962H46.0712L46.0731 48.0981ZM42.8768 56.5555C42.5761 56.2068 42.2491 55.9636 41.8978 55.8242C41.5464 55.6847 41.1743 55.6149 40.7797 55.6149C40.3851 55.6149 40.0431 55.6885 39.7255 55.8355C39.408 55.9825 39.1374 56.2124 38.9081 56.5272C38.6808 56.8401 38.5041 57.2416 38.382 57.7298C38.258 58.2179 38.196 58.7985 38.196 59.4733C38.196 60.1481 38.2467 60.7041 38.3463 61.1697C38.4459 61.6352 38.5906 62.0103 38.7804 62.2968C38.9702 62.5833 39.1994 62.7906 39.47 62.9188C39.7406 63.047 40.0412 63.1111 40.3738 63.1111C40.9375 63.1111 41.4111 62.998 41.7925 62.7737C42.174 62.5494 42.5348 62.2308 42.8749 61.8218V56.5593L42.8768 56.5555Z" fill="#414243"/>
<path d="M59.7978 53.4436L53.3582 68.6394C53.2586 68.8562 53.1365 69.0183 52.9937 69.1276C52.8509 69.2351 52.6254 69.2897 52.3154 69.2897H49.9402L52.1988 64.4569L47.4034 53.4436H50.207C50.4626 53.4436 50.658 53.502 50.7971 53.617C50.9361 53.7339 51.0357 53.8696 51.0977 54.0241L53.3676 59.7523C53.4522 59.9766 53.5274 60.2027 53.5931 60.4327C53.6589 60.6608 53.7228 60.887 53.7848 61.1131C53.9238 60.657 54.0817 60.199 54.2602 59.7428L56.3685 54.026C56.4305 53.8564 56.5414 53.7169 56.7049 53.6076C56.8665 53.5001 57.045 53.4455 57.2385 53.4455H59.7978V53.4436Z" fill="#414243"/>
<path d="M66.4328 53.257C67.3292 53.257 68.1428 53.4002 68.8775 53.6867C69.6104 53.9732 70.2399 54.3822 70.766 54.9119C71.2903 55.4415 71.6961 56.088 71.9818 56.8458C72.2674 57.6054 72.4102 58.4611 72.4102 59.4129C72.4102 60.3648 72.2674 61.2243 71.9818 61.9858C71.6961 62.7492 71.2903 63.3976 70.766 63.931C70.2417 64.4663 69.6122 64.8753 68.8775 65.1618C68.1447 65.4483 67.3292 65.5916 66.4328 65.5916C65.5365 65.5916 64.7097 65.4483 63.9713 65.1618C63.2347 64.8753 62.6033 64.4644 62.0771 63.931C61.5529 63.3976 61.1451 62.7473 60.8557 61.9858C60.5664 61.2224 60.4217 60.3648 60.4217 59.4129C60.4217 58.4611 60.5664 57.6054 60.8557 56.8458C61.1451 56.0862 61.5529 55.4415 62.0771 54.9119C62.6014 54.3822 63.2328 53.9732 63.9713 53.6867C64.7079 53.4002 65.529 53.257 66.4328 53.257ZM66.4328 63.1902C67.3442 63.1902 68.0188 62.8755 68.4604 62.244C68.9001 61.6126 69.1199 60.6739 69.1199 59.4261C69.1199 58.1784 68.9001 57.251 68.4604 56.6215C68.0207 55.99 67.3442 55.6753 66.4328 55.6753C65.5215 55.6753 64.8112 55.99 64.3715 56.6215C63.9318 57.2529 63.7119 58.1878 63.7119 59.4261C63.7119 60.6645 63.9318 61.6126 64.3715 62.244C64.8112 62.8755 65.4989 63.1902 66.4328 63.1902Z" fill="#414243"/>
<path d="M14.2453 83.3885C14.3223 83.3885 14.3881 83.4149 14.4426 83.4696L14.9067 83.969C14.5666 84.3328 14.1983 84.6608 13.7999 84.9511C13.4016 85.2413 12.9656 85.4901 12.4921 85.6937C12.0167 85.8992 11.4962 86.0575 10.9287 86.1706C10.3612 86.2837 9.73737 86.3383 9.05902 86.3383C7.92406 86.3383 6.88305 86.1385 5.93788 85.7408C4.9927 85.3412 4.17906 84.7758 3.50072 84.0444C2.82049 83.3131 2.29435 82.4272 1.92041 81.3905C1.54648 80.352 1.35857 79.1984 1.35857 77.928C1.35857 76.6576 1.55212 75.5418 1.93733 74.5127C2.32254 73.4835 2.86371 72.5976 3.55897 71.8588C4.25423 71.1199 5.08854 70.5469 6.06002 70.1397C7.03338 69.7326 8.10633 69.5291 9.28075 69.5291C10.4552 69.5291 11.3928 69.7025 12.2572 70.0512C13.1216 70.3999 13.9089 70.8918 14.6192 71.527L14.2603 72.0491C14.1983 72.1415 14.1025 72.1886 13.9709 72.1886C13.8789 72.1886 13.7285 72.1038 13.5199 71.9323C13.3114 71.7626 13.022 71.5741 12.6518 71.3687C12.2816 71.1632 11.8194 70.9766 11.2669 70.8051C10.7145 70.6355 10.0531 70.5488 9.28075 70.5488C8.29236 70.5488 7.38665 70.7184 6.56549 71.0596C5.74245 71.4007 5.03592 71.8889 4.44589 72.5241C3.85586 73.1593 3.39361 73.934 3.06101 74.8482C2.72842 75.7623 2.56306 76.7877 2.56306 77.9262C2.56306 79.0646 2.7303 80.1258 3.06665 81.04C3.403 81.9541 3.86338 82.7269 4.45153 83.3583C5.0378 83.9898 5.73118 84.4742 6.52979 84.8097C7.32839 85.1471 8.19089 85.3148 9.11915 85.3148C9.70543 85.3148 10.2297 85.2753 10.6882 85.198C11.1467 85.1207 11.5695 85.0038 11.9566 84.8493C12.3418 84.6947 12.7007 84.5044 13.0333 84.2801C13.3659 84.0558 13.6928 83.7919 14.0179 83.4903C14.0574 83.4601 14.0949 83.4337 14.1344 83.4149C14.1739 83.396 14.2114 83.3866 14.2509 83.3866L14.2453 83.3885Z" fill="#414243"/>
<path d="M22.1224 74.4091C22.9492 74.4091 23.6876 74.5504 24.3397 74.8332C24.9917 75.1159 25.5423 75.5174 25.9895 76.0357C26.4367 76.554 26.7787 77.1798 27.0136 77.9112C27.2485 78.6425 27.3669 79.4624 27.3669 80.369C27.3669 81.2756 27.2485 82.0918 27.0136 82.8212C26.7787 83.5488 26.4367 84.1727 25.9895 84.691C25.5423 85.2094 24.9917 85.609 24.3397 85.8879C23.6876 86.1669 22.9473 86.3064 22.1224 86.3064C21.2974 86.3064 20.5571 86.1669 19.905 85.8879C19.253 85.609 18.7006 85.2094 18.2496 84.691C17.7986 84.1727 17.4547 83.5488 17.218 82.8212C16.9831 82.0937 16.8647 81.2756 16.8647 80.369C16.8647 79.4624 16.9831 78.6444 17.218 77.9112C17.4529 77.1798 17.7967 76.554 18.2496 76.0357C18.7006 75.5174 19.253 75.1159 19.905 74.8332C20.5571 74.5504 21.2974 74.4091 22.1224 74.4091ZM22.1224 85.4337C22.8101 85.4337 23.4095 85.3149 23.9225 85.0793C24.4355 84.8437 24.8639 84.5044 25.2078 84.0634C25.5517 83.6223 25.8072 83.0889 25.9782 82.465C26.1473 81.8411 26.2338 81.1418 26.2338 80.369C26.2338 79.5962 26.1492 78.9045 25.9782 78.2787C25.8091 77.651 25.5517 77.1157 25.2078 76.669C24.8639 76.2242 24.4355 75.8811 23.9225 75.6399C23.4095 75.4005 22.8082 75.2799 22.1224 75.2799C21.4365 75.2799 20.8352 75.4005 20.3222 75.6399C19.8092 75.8793 19.3808 76.2223 19.0369 76.669C18.693 77.1139 18.4337 77.651 18.2609 78.2787C18.088 78.9064 17.9997 79.6038 17.9997 80.369C17.9997 81.1343 18.0861 81.843 18.2609 82.465C18.4337 83.0889 18.693 83.6204 19.0369 84.0634C19.3808 84.5044 19.8092 84.8437 20.3222 85.0793C20.8352 85.3149 21.4365 85.4337 22.1224 85.4337Z" fill="#414243"/>
<path d="M31.5384 76.6162C32.0721 75.9508 32.6865 75.4155 33.3855 75.0121C34.0846 74.6088 34.8625 74.4071 35.7194 74.4071C36.3526 74.4071 36.9107 74.507 37.3936 74.7087C37.8765 74.9104 38.2749 75.2006 38.5925 75.5795C38.9081 75.9584 39.1487 76.4164 39.3103 76.9498C39.4719 77.4832 39.5527 78.0883 39.5527 78.763V86.1517H38.4403V78.763C38.4403 77.6792 38.1922 76.8292 37.6999 76.2128C37.2057 75.5965 36.4522 75.2892 35.4413 75.2892C34.6915 75.2892 33.9906 75.4815 33.3386 75.8641C32.6865 76.2467 32.1059 76.7802 31.5948 77.4625V86.1517H30.4824V74.5918H31.0968C31.2904 74.5918 31.4012 74.6879 31.4332 74.8821L31.5365 76.6124L31.5384 76.6162Z" fill="#414243"/>
<path d="M44.2767 76.6162C44.8103 75.9508 45.4248 75.4155 46.1238 75.0121C46.8228 74.6088 47.6008 74.4071 48.4576 74.4071C49.0909 74.4071 49.6489 74.507 50.1319 74.7087C50.6148 74.9104 51.0132 75.2006 51.3307 75.5795C51.6464 75.9584 51.8869 76.4164 52.0485 76.9498C52.2101 77.4832 52.2909 78.0883 52.2909 78.763V86.1517H51.1785V78.763C51.1785 77.6792 50.9305 76.8292 50.4382 76.2128C49.944 75.5965 49.1904 75.2892 48.1795 75.2892C47.4298 75.2892 46.7289 75.4815 46.0768 75.8641C45.4248 76.2467 44.8441 76.7802 44.333 77.4625V86.1517H43.2206V74.5918H43.8351C44.0286 74.5918 44.1395 74.6879 44.1714 74.8821L44.2748 76.6124L44.2767 76.6162Z" fill="#414243"/>
<path d="M56.3572 79.9148V80.1353C56.3572 81.0023 56.4568 81.7657 56.6579 82.4235C56.859 83.0813 57.1446 83.6336 57.5148 84.0784C57.8849 84.5233 58.3322 84.8588 58.8583 85.0831C59.3826 85.3074 59.9707 85.4205 60.619 85.4205C61.1977 85.4205 61.6995 85.3564 62.1241 85.2282C62.5488 85.1 62.9058 84.9568 63.1952 84.7985C63.4846 84.6401 63.7138 84.4969 63.8848 84.3687C64.0539 84.2405 64.178 84.1764 64.255 84.1764C64.3546 84.1764 64.4316 84.216 64.4861 84.2933L64.7868 84.6646C64.6007 84.8965 64.3565 85.1132 64.0521 85.3149C63.7476 85.5166 63.4075 85.6881 63.0336 85.8314C62.6597 85.9746 62.2575 86.0896 61.8291 86.1744C61.4007 86.2592 60.9704 86.3026 60.5382 86.3026C59.7509 86.3026 59.033 86.165 58.3848 85.8898C57.7365 85.6146 57.1803 85.215 56.7161 84.6872C56.252 84.1614 55.895 83.5167 55.6451 82.7534C55.3933 81.99 55.2693 81.1173 55.2693 80.1334C55.2693 79.3041 55.3876 78.5407 55.6225 77.8395C55.8574 77.1383 56.1975 76.5352 56.641 76.0263C57.0844 75.5192 57.6294 75.1215 58.2739 74.835C58.9184 74.5485 59.6494 74.4053 60.4687 74.4053C61.1169 74.4053 61.7201 74.5184 62.2763 74.7427C62.8325 74.967 63.3155 75.2949 63.7232 75.7247C64.1329 76.1544 64.4542 76.6822 64.6909 77.3099C64.9258 77.9375 65.0442 78.6575 65.0442 79.4699C65.0442 79.6396 65.0217 79.7564 64.9747 79.8186C64.9277 79.8808 64.8507 79.911 64.7436 79.911H56.3591L56.3572 79.9148ZM64.0483 79.206C64.0483 78.5859 63.9619 78.0318 63.7871 77.5398C63.6142 77.0479 63.3681 76.6313 63.0524 76.2901C62.7348 75.949 62.359 75.6889 61.9231 75.506C61.4871 75.3232 61.0061 75.2327 60.4818 75.2327C59.888 75.2327 59.3544 75.3251 58.8827 75.5117C58.4111 75.6983 58.0052 75.9641 57.6613 76.3128C57.3174 76.6615 57.0412 77.0799 56.8327 77.5681C56.6241 78.0563 56.485 78.6029 56.4155 79.206H64.0483Z" fill="#414243"/>
<path d="M75.7925 76.1393C75.7531 76.1789 75.7174 76.2109 75.6835 76.2373C75.6497 76.2637 75.6009 76.2788 75.5389 76.2788C75.4618 76.2788 75.3566 76.226 75.2269 76.1223C75.0954 76.0187 74.9188 75.9037 74.6933 75.7793C74.4697 75.6549 74.1897 75.5418 73.8533 75.4363C73.517 75.3326 73.1092 75.2798 72.6319 75.2798C71.9686 75.2798 71.3786 75.3986 70.8656 75.6342C70.3526 75.8698 69.9185 76.2091 69.5634 76.6501C69.2082 77.0912 68.9395 77.6265 68.7591 78.2541C68.5769 78.8818 68.4867 79.5867 68.4867 80.369C68.4867 81.1512 68.5806 81.9033 68.7704 82.529C68.9602 83.1567 69.2289 83.6845 69.5747 84.1142C69.9223 84.544 70.3432 84.8719 70.8374 85.0962C71.3316 85.3205 71.8803 85.4336 72.4816 85.4336C73.0378 85.4336 73.5019 85.3676 73.8777 85.2357C74.2517 85.1038 74.5617 84.9605 74.8041 84.806C75.0465 84.6514 75.2382 84.5081 75.3773 84.3762C75.5163 84.2443 75.6328 84.1783 75.7249 84.1783C75.817 84.1783 75.894 84.2179 75.956 84.2952L76.2454 84.6665C76.0669 84.8983 75.8433 85.1151 75.5727 85.3168C75.3021 85.5184 74.9977 85.6918 74.6576 85.8389C74.3175 85.9859 73.9492 86.1009 73.5508 86.1819C73.1524 86.263 72.7372 86.3044 72.305 86.3044C71.5721 86.3044 70.9013 86.1706 70.2962 85.9029C69.6893 85.6353 69.1688 85.2489 68.7328 84.7419C68.2969 84.2348 67.9568 83.6128 67.7144 82.8777C67.472 82.1426 67.3498 81.3058 67.3498 80.369C67.3498 79.4869 67.4663 78.6801 67.6975 77.9526C67.9286 77.225 68.2687 76.5973 68.7159 76.0715C69.1631 75.5456 69.71 75.1366 70.3545 74.8463C70.999 74.556 71.7394 74.4109 72.5718 74.4109C73.3197 74.4109 73.9849 74.5315 74.5636 74.7709C75.1424 75.0103 75.6478 75.3364 76.08 75.7473L75.7906 76.1431L75.7925 76.1393Z" fill="#414243"/>
<path d="M82.1156 86.3403C81.3358 86.3403 80.727 86.1235 80.291 85.69C79.8551 85.2564 79.6371 84.5854 79.6371 83.6807V75.7812H77.9816C77.8971 75.7812 77.8276 75.7586 77.7731 75.7115C77.7186 75.6643 77.6923 75.5984 77.6923 75.5136V75.0838L79.6615 74.9443L79.9396 70.8089C79.9547 70.7392 79.9866 70.677 80.0317 70.6223C80.0787 70.5676 80.1426 70.5413 80.229 70.5413H80.7495V74.9556H84.3855V75.7812H80.7495V83.6223C80.7495 83.9408 80.7909 84.2122 80.8717 84.4422C80.9525 84.6703 81.0652 84.8587 81.208 85.0058C81.3508 85.1528 81.5181 85.2621 81.7116 85.3318C81.9052 85.4016 82.1137 85.4355 82.3373 85.4355C82.6154 85.4355 82.8541 85.394 83.0551 85.313C83.2562 85.2319 83.4291 85.1434 83.5757 85.0453C83.7222 84.9492 83.8425 84.8587 83.9346 84.7777C84.0266 84.6966 84.0999 84.6552 84.1544 84.6552C84.2164 84.6552 84.2784 84.6948 84.3404 84.772L84.6411 85.2602C84.348 85.5863 83.9759 85.8464 83.523 86.0443C83.0721 86.2422 82.6023 86.3403 82.1156 86.3403Z" fill="#414243"/>
<path d="M43.8745 33.5734V41.6086H63.3042V22.119H55.7334V33.5734H43.8745Z" fill="#71B2C9"/>
<path d="M29.3023 22.119H21.7315V41.6086H41.1612V33.5734H29.3023V22.119Z" fill="#003594"/>
<path d="M55.7334 19.3953H63.3042V-0.0942383H43.8745V7.06073H55.7334V19.3953Z" fill="#003594"/>
<path d="M41.1612 7.06073V-0.0942383H21.7315V19.3953H29.3023V7.06073H41.1612Z" fill="#71B2C9"/>
<path d="M52.2327 19.3953V11.0114H43.8745V7.05884H41.1612V11.0114H32.803V19.3953H29.3023V22.1171H32.803V30.501H41.1612V33.5714H43.8745V30.501H52.2327V22.1171H55.7334V19.3953H52.2327ZM46.6969 17.1316V25.0104H38.3388V16.6264H46.6969V17.1316Z" fill="#003594"/>
</g>
<defs>
<clipPath id="clip0_1341_8085">
<rect width="85" height="87" fill="white"/>
</clipPath>
</defs>
</svg>
