<svg width="297" height="53" viewBox="0 0 297 53" fill="none" xmlns="http://www.w3.org/2000/svg">
<g clip-path="url(#clip0_1340_7481)">
<path d="M87.9272 10.0522L77.026 37.1786H71.9478L61.0466 10.0522H65.5646C66.0491 10.0522 66.4457 10.1675 66.7486 10.398C67.0544 10.6286 67.2815 10.9258 67.4299 11.2868L73.2893 26.9171C73.5134 27.5025 73.7344 28.1426 73.9524 28.8341C74.1705 29.5257 74.3733 30.2507 74.5581 31.012C74.7185 30.2507 74.8972 29.5257 75.091 28.8341C75.2848 28.1426 75.4937 27.5025 75.7148 26.9171L81.5378 11.2868C81.662 10.9744 81.883 10.6923 82.201 10.4375C82.5189 10.1827 82.9126 10.0553 83.385 10.0553H87.9211L87.9272 10.0522Z" fill="#414243"/>
<path d="M95.6337 12.4272C95.6337 12.864 95.5459 13.2674 95.3733 13.6436C95.1977 14.0167 94.9645 14.3473 94.6738 14.6354C94.3801 14.9236 94.0379 15.1481 93.6473 15.3088C93.2567 15.4696 92.8358 15.5515 92.3876 15.5515C91.9637 15.5515 91.564 15.4696 91.1824 15.3088C90.8039 15.1481 90.4708 14.9236 90.1832 14.6354C89.8955 14.3503 89.6714 14.0197 89.5018 13.6436C89.3353 13.2705 89.2505 12.864 89.2505 12.4272C89.2505 11.9905 89.3353 11.584 89.5018 11.2018C89.6684 10.8226 89.8955 10.489 90.1832 10.2008C90.4708 9.91267 90.8009 9.69125 91.1824 9.52745C91.5609 9.36669 91.9637 9.28479 92.3876 9.28479C92.8358 9.28479 93.2567 9.36669 93.6473 9.52745C94.0379 9.68821 94.3801 9.91267 94.6738 10.2008C94.9645 10.489 95.2007 10.8196 95.3733 11.2018C95.5459 11.581 95.6337 11.9905 95.6337 12.4272ZM95.019 17.9053V37.1816H89.8682V17.9053H95.019Z" fill="#414243"/>
<path d="M116.464 9.30603V37.1816H113.291C112.631 37.1816 112.21 36.8813 112.022 36.2838L111.592 34.6003C111.207 35.025 110.799 35.4102 110.369 35.759C109.939 36.1078 109.475 36.4112 108.979 36.666C108.482 36.9208 107.946 37.1179 107.374 37.2544C106.801 37.3909 106.181 37.4607 105.508 37.4607C104.476 37.4607 103.531 37.2423 102.671 36.8055C101.811 36.3687 101.069 35.7317 100.439 34.8885C99.8096 34.0483 99.322 33.017 98.9738 31.7946C98.6256 30.5722 98.45 29.1769 98.45 27.6056C98.45 26.1739 98.6468 24.8393 99.0374 23.6048C99.428 22.3702 99.9852 21.3056 100.709 20.4077C101.43 19.5099 102.302 18.8062 103.322 18.2966C104.343 17.787 105.475 17.5292 106.72 17.5292C107.764 17.5292 108.646 17.6839 109.36 17.9963C110.075 18.3087 110.726 18.7334 111.31 19.2672V9.30603H116.461H116.464ZM111.313 22.9162C110.829 22.3551 110.302 21.9638 109.736 21.7393C109.169 21.5149 108.57 21.4026 107.934 21.4026C107.298 21.4026 106.747 21.5209 106.235 21.7575C105.723 21.9941 105.287 22.3642 104.918 22.8707C104.552 23.3743 104.267 24.0203 104.07 24.8059C103.87 25.5916 103.77 26.5258 103.77 27.6117C103.77 28.6976 103.852 29.5924 104.013 30.3416C104.173 31.0908 104.406 31.6945 104.712 32.1555C105.018 32.6166 105.387 32.9502 105.823 33.1565C106.259 33.3627 106.744 33.4659 107.28 33.4659C108.188 33.4659 108.951 33.2839 109.566 32.9229C110.181 32.562 110.762 32.0493 111.31 31.3911V22.9223L111.313 22.9162Z" fill="#414243"/>
<path d="M138.581 17.9053L128.204 42.3593C128.04 42.7082 127.847 42.969 127.617 43.145C127.386 43.3179 127.023 43.4058 126.523 43.4058H122.696L126.336 35.6286L118.608 17.9053H123.126C123.538 17.9053 123.853 17.9993 124.077 18.1843C124.301 18.3724 124.461 18.5908 124.561 18.8395L128.219 28.0576C128.355 28.4185 128.477 28.7825 128.583 29.1526C128.688 29.5196 128.791 29.8836 128.891 30.2476C129.115 29.5135 129.37 28.7764 129.657 28.0424L133.055 18.8425C133.155 18.5696 133.334 18.3451 133.597 18.1692C133.857 17.9963 134.145 17.9083 134.454 17.9083H138.578L138.581 17.9053Z" fill="#414243"/>
<path d="M149.274 17.605C150.718 17.605 152.029 17.8355 153.21 18.2966C154.391 18.7576 155.406 19.4158 156.253 20.2682C157.098 21.1205 157.752 22.1609 158.213 23.3803C158.673 24.6027 158.903 25.9798 158.903 27.5116C158.903 29.0434 158.673 30.4265 158.213 31.652C157.752 32.8804 157.098 33.9239 156.253 34.7823C155.409 35.6437 154.394 36.3019 153.21 36.763C152.026 37.2241 150.715 37.4546 149.274 37.4546C147.832 37.4546 146.497 37.2241 145.307 36.763C144.12 36.3019 143.102 35.6407 142.254 34.7823C141.41 33.9239 140.752 32.8774 140.286 31.652C139.82 30.4235 139.587 29.0434 139.587 27.5116C139.587 25.9798 139.82 24.6027 140.286 23.3803C140.752 22.1579 141.41 21.1205 142.254 20.2682C143.099 19.4158 144.117 18.7576 145.307 18.2966C146.494 17.8355 147.817 17.605 149.274 17.605ZM149.274 33.5902C150.742 33.5902 151.829 33.0837 152.541 32.0675C153.249 31.0514 153.604 29.5408 153.604 27.5328C153.604 25.5248 153.249 24.0324 152.541 23.0193C151.832 22.0032 150.742 21.4966 149.274 21.4966C147.805 21.4966 146.66 22.0032 145.952 23.0193C145.243 24.0355 144.889 25.54 144.889 27.5328C144.889 29.5257 145.243 31.0514 145.952 32.0675C146.66 33.0837 147.769 33.5902 149.274 33.5902Z" fill="#414243"/>
<path d="M182.983 32.7318C183.107 32.7318 183.213 32.7743 183.301 32.8623L184.048 33.6661C183.5 34.2515 182.907 34.7793 182.265 35.2464C181.623 35.7135 180.92 36.1139 180.157 36.4415C179.391 36.7721 178.552 37.0269 177.638 37.2089C176.723 37.3909 175.718 37.4789 174.625 37.4789C172.796 37.4789 171.118 37.1574 169.595 36.5173C168.072 35.8743 166.761 34.9643 165.668 33.7874C164.572 32.6105 163.724 31.1849 163.121 29.5166C162.519 27.8453 162.216 25.9889 162.216 23.9445C162.216 21.9001 162.528 20.1044 163.148 18.4483C163.769 16.7921 164.641 15.3665 165.762 14.1774C166.882 12.9884 168.227 12.0663 169.792 11.4111C171.361 10.7559 173.09 10.4283 174.979 10.4283C176.869 10.4283 178.383 10.7074 179.776 11.2686C181.169 11.8297 182.438 12.6214 183.582 13.6436L183.004 14.4838C182.904 14.6324 182.749 14.7083 182.537 14.7083C182.389 14.7083 182.147 14.5718 181.811 14.2957C181.475 14.0227 181.008 13.7194 180.412 13.3888C179.815 13.0582 179.07 12.7579 178.18 12.4819C177.29 12.2089 176.224 12.0693 174.979 12.0693C173.387 12.0693 171.927 12.3423 170.604 12.8913C169.277 13.4404 168.139 14.226 167.188 15.2482C166.237 16.2704 165.492 17.5171 164.956 18.9882C164.42 20.4593 164.154 22.1094 164.154 23.9415C164.154 25.7736 164.423 27.4813 164.965 28.9524C165.507 30.4235 166.249 31.6672 167.197 32.6833C168.142 33.6994 169.259 34.479 170.546 35.0189C171.833 35.5619 173.223 35.8318 174.719 35.8318C175.664 35.8318 176.509 35.7681 177.247 35.6438C177.986 35.5194 178.668 35.3313 179.291 35.0826C179.912 34.8339 180.49 34.5275 181.026 34.1666C181.562 33.8056 182.089 33.381 182.613 32.8956C182.677 32.8471 182.737 32.8046 182.801 32.7743C182.864 32.744 182.925 32.7288 182.989 32.7288L182.983 32.7318Z" fill="#414243"/>
<path d="M195.673 18.2783C197.006 18.2783 198.196 18.5058 199.246 18.9608C200.297 19.4158 201.184 20.0619 201.905 20.896C202.626 21.7302 203.177 22.7372 203.559 23.9141C203.937 25.091 204.128 26.4105 204.128 27.8695C204.128 29.3285 203.937 30.6419 203.559 31.8157C203.18 32.9866 202.629 33.9906 201.905 34.8247C201.184 35.6589 200.297 36.3019 199.246 36.7508C198.196 37.1997 197.003 37.4242 195.673 37.4242C194.344 37.4242 193.151 37.1997 192.1 36.7508C191.049 36.3019 190.159 35.6589 189.432 34.8247C188.706 33.9906 188.152 32.9866 187.77 31.8157C187.391 30.6449 187.201 29.3285 187.201 27.8695C187.201 26.4105 187.391 25.094 187.77 23.9141C188.148 22.7372 188.703 21.7302 189.432 20.896C190.159 20.0619 191.049 19.4158 192.1 18.9608C193.151 18.5058 194.344 18.2783 195.673 18.2783ZM195.673 36.0198C196.782 36.0198 197.748 35.8287 198.574 35.4496C199.401 35.0704 200.091 34.5244 200.645 33.8146C201.2 33.1049 201.611 32.2464 201.887 31.2424C202.16 30.2384 202.299 29.1131 202.299 27.8695C202.299 26.6258 202.163 25.5126 201.887 24.5056C201.614 23.4955 201.2 22.6341 200.645 21.9152C200.091 21.1993 199.401 20.6473 198.574 20.259C197.748 19.8738 196.779 19.6797 195.673 19.6797C194.568 19.6797 193.599 19.8738 192.772 20.259C191.946 20.6443 191.255 21.1963 190.701 21.9152C190.147 22.631 189.729 23.4955 189.451 24.5056C189.172 25.5157 189.03 26.638 189.03 27.8695C189.03 29.101 189.169 30.2415 189.451 31.2424C189.729 32.2464 190.147 33.1018 190.701 33.8146C191.255 34.5244 191.946 35.0704 192.772 35.4496C193.599 35.8287 194.568 36.0198 195.673 36.0198Z" fill="#414243"/>
<path d="M210.847 21.8304C211.704 20.7596 212.697 19.8982 213.824 19.2491C214.95 18.5999 216.204 18.2754 217.585 18.2754C218.605 18.2754 219.505 18.4362 220.283 18.7607C221.061 19.0853 221.703 19.5524 222.215 20.1621C222.723 20.7718 223.111 21.5088 223.371 22.3672C223.632 23.2257 223.762 24.1993 223.762 25.2852V37.1756H221.969V25.2852C221.969 23.5411 221.57 22.1731 220.773 21.1812C219.977 20.1894 218.763 19.695 217.134 19.695C215.925 19.695 214.796 20.0043 213.745 20.6201C212.694 21.2358 211.759 22.0943 210.935 23.1923V37.1756H209.142V18.5726H210.133C210.444 18.5726 210.623 18.7273 210.675 19.0398L210.844 21.8243L210.847 21.8304Z" fill="#414243"/>
<path d="M231.378 21.8304C232.235 20.7596 233.228 19.8982 234.354 19.2491C235.481 18.5999 236.734 18.2754 238.115 18.2754C239.136 18.2754 240.035 18.4362 240.813 18.7607C241.592 19.0853 242.233 19.5524 242.745 20.1621C243.254 20.7718 243.642 21.5088 243.902 22.3672C244.162 23.2257 244.293 24.1993 244.293 25.2852V37.1756H242.5V25.2852C242.5 23.5411 242.1 22.1731 241.304 21.1812C240.507 20.1894 239.293 19.695 237.664 19.695C236.456 19.695 235.326 20.0043 234.276 20.6201C233.225 21.2358 232.289 22.0943 231.466 23.1923V37.1756H229.673V18.5726H230.663C230.975 18.5726 231.154 18.7273 231.205 19.0398L231.375 21.8243L231.378 21.8304Z" fill="#414243"/>
<path d="M250.846 27.1416V27.4965C250.846 28.8918 251.006 30.1202 251.33 31.1788C251.654 32.2374 252.114 33.1262 252.711 33.842C253.307 34.5579 254.028 35.0978 254.876 35.4588C255.721 35.8197 256.669 36.0017 257.713 36.0017C258.646 36.0017 259.454 35.8986 260.139 35.6923C260.823 35.4861 261.399 35.2555 261.865 35.0007C262.331 34.7459 262.701 34.5154 262.976 34.3092C263.249 34.1029 263.449 33.9998 263.573 33.9998C263.733 33.9998 263.857 34.0635 263.945 34.1878L264.43 34.7854C264.13 35.1585 263.736 35.5073 263.246 35.8319C262.755 36.1564 262.207 36.4324 261.604 36.663C261.002 36.8935 260.354 37.0785 259.663 37.215C258.973 37.3515 258.28 37.4213 257.583 37.4213C256.314 37.4213 255.158 37.1998 254.113 36.757C253.068 36.3141 252.172 35.6711 251.424 34.8218C250.676 33.9755 250.101 32.9381 249.698 31.7097C249.292 30.4812 249.092 29.0768 249.092 27.4934C249.092 26.1588 249.283 24.9303 249.662 23.802C250.04 22.6736 250.588 21.703 251.303 20.884C252.017 20.068 252.896 19.428 253.934 18.967C254.973 18.5059 256.151 18.2754 257.471 18.2754C258.516 18.2754 259.488 18.4574 260.384 18.8183C261.28 19.1793 262.059 19.7071 262.719 20.3987C263.379 21.0902 263.897 21.9396 264.278 22.9496C264.657 23.9597 264.848 25.1184 264.848 26.4257C264.848 26.6987 264.811 26.8868 264.736 26.9869C264.66 27.087 264.536 27.1355 264.363 27.1355H250.852L250.846 27.1416ZM263.237 26.0011C263.237 25.0031 263.097 24.1114 262.816 23.3197C262.537 22.528 262.14 21.8577 261.632 21.3086C261.12 20.7596 260.514 20.341 259.812 20.0468C259.109 19.7526 258.334 19.607 257.489 19.607C256.532 19.607 255.672 19.7556 254.912 20.0559C254.152 20.3562 253.498 20.7839 252.944 21.345C252.39 21.9062 251.945 22.5796 251.609 23.3652C251.273 24.1508 251.048 25.0304 250.936 26.0011H263.237Z" fill="#414243"/>
<path d="M282.162 21.0659C282.099 21.1296 282.041 21.1812 281.987 21.2236C281.932 21.2661 281.853 21.2904 281.753 21.2904C281.629 21.2904 281.46 21.2054 281.251 21.0386C281.039 20.8718 280.754 20.6868 280.391 20.4866C280.03 20.2864 279.579 20.1044 279.037 19.9345C278.495 19.7677 277.838 19.6828 277.069 19.6828C276 19.6828 275.049 19.8738 274.222 20.253C273.396 20.6322 272.696 21.1781 272.124 21.8879C271.552 22.5977 271.119 23.4592 270.828 24.4692C270.534 25.4793 270.389 26.6137 270.389 27.8725C270.389 29.1313 270.54 30.3416 270.846 31.3486C271.152 32.3587 271.582 33.208 272.142 33.8996C272.702 34.5912 273.381 35.119 274.177 35.4799C274.973 35.8409 275.858 36.0229 276.827 36.0229C277.723 36.0229 278.471 35.9167 279.077 35.7044C279.679 35.4921 280.179 35.2615 280.569 35.0128C280.96 34.7641 281.269 34.5336 281.493 34.3212C281.717 34.1089 281.905 34.0027 282.053 34.0027C282.202 34.0027 282.326 34.0664 282.426 34.1908L282.892 34.7883C282.604 35.1614 282.244 35.5103 281.808 35.8348C281.372 36.1594 280.881 36.4384 280.333 36.675C279.785 36.9116 279.192 37.0967 278.55 37.2271C277.908 37.3575 277.238 37.4242 276.542 37.4242C275.361 37.4242 274.28 37.2089 273.305 36.7782C272.327 36.3474 271.488 35.7256 270.786 34.9097C270.083 34.0937 269.535 33.0928 269.144 31.9098C268.754 30.7268 268.557 29.3801 268.557 27.8725C268.557 26.453 268.745 25.1547 269.117 23.9839C269.49 22.8131 270.038 21.803 270.758 20.9567C271.479 20.1104 272.36 19.4522 273.399 18.9851C274.437 18.518 275.631 18.2844 276.972 18.2844C278.18 18.2844 279.249 18.4786 280.182 18.8638C281.114 19.249 281.929 19.7738 282.625 20.435L282.159 21.072L282.162 21.0659Z" fill="#414243"/>
<path d="M292.355 37.4789C291.098 37.4789 290.117 37.1301 289.414 36.4324C288.712 35.7348 288.361 34.655 288.361 33.199V20.4866H285.693C285.557 20.4866 285.445 20.4502 285.357 20.3744C285.269 20.2986 285.227 20.1924 285.227 20.0559V19.3643L288.4 19.1399L288.848 12.4849C288.872 12.3727 288.924 12.2726 288.997 12.1846C289.072 12.0967 289.175 12.0542 289.315 12.0542H290.153V19.1581H296.013V20.4866H290.153V33.105C290.153 33.6176 290.22 34.0544 290.35 34.4244C290.48 34.7915 290.662 35.0948 290.892 35.3314C291.122 35.568 291.392 35.7439 291.704 35.8561C292.016 35.9684 292.352 36.023 292.712 36.023C293.16 36.023 293.545 35.9562 293.869 35.8258C294.193 35.6954 294.471 35.5528 294.708 35.3951C294.944 35.2404 295.138 35.0948 295.286 34.9643C295.434 34.8339 295.552 34.7672 295.64 34.7672C295.74 34.7672 295.84 34.8309 295.94 34.9552L296.425 35.7409C295.952 36.2656 295.353 36.6842 294.623 37.0027C293.896 37.3212 293.139 37.4789 292.355 37.4789Z" fill="#414243"/>
<path d="M24.6035 40.7396V49.6998H46.2969V27.9696H37.8424V40.7396H24.6035Z" fill="#71B2C9"/>
<path d="M8.33339 27.9696H-0.121094V49.6998H21.5723V40.7396H8.33339V27.9696Z" fill="#003594"/>
<path d="M37.8424 24.9333H46.2969V3.20312H24.6035V11.1806H37.8424V24.9333Z" fill="#003594"/>
<path d="M21.5723 11.1806V3.20312H-0.121094V24.9333H8.33339V11.1806H21.5723Z" fill="#71B2C9"/>
<path d="M33.9331 24.9333V15.5848H24.6005V11.1775H21.5693V15.5848H12.2367V24.9333H8.32739V27.9696H12.2367V37.3181H21.5693V40.7426H24.6005V37.3181H33.9331V27.9696H37.8424V24.9333H33.9331ZM27.7527 22.4096V31.1939H18.4201V21.8454H27.7527V22.4096Z" fill="#003594"/>
</g>
<defs>
<clipPath id="clip0_1340_7481">
<rect width="297" height="53" fill="white"/>
</clipPath>
</defs>
</svg>
